<svg version="1.1" xmlns="http://www.w3.org/2000/svg" xmlns:xlink="http://www.w3.org/1999/xlink" style="display: none;">
    <symbol id="edge-button-path" viewBox="0 0 17 32">
        <polyline stroke-linecap="round" stroke-linejoin="round" stroke-miterlimit="10" points="
                  1,31 16,16 1,1 " />
    </symbol>
    <symbol id="add-user-icon" viewBox="0 0 492.308 492.308">
        <g>
            <g>
                <polygon points="401.817,367.952 401.817,322.308 382.125,322.308 382.125,367.952 336.481,367.952 336.481,387.644 
                    382.125,387.644 382.125,433.279 401.817,433.279 401.817,387.644 447.462,387.644 447.462,367.952         "/>
            </g>
        </g>
        <g>
            <g>
                <path d="M392.15,277.471c-14.551-19.507-31.998-36.447-52.15-50.144c-1.615-1.106-4.875-3.221-4.875-3.221L327.26,219
                    l-5.481,7.615c-24.096,33.452-63.01,53.433-104.077,53.433c-41.077,0-79.981-19.981-104.077-53.442l-5.5-7.644l-11.904,7.817
                    C35.971,267.356,0,334.904,0,407.462v31.644h312.725c18.37,23.685,47.018,39.019,79.246,39.019
                    c55.327,0,100.337-45.01,100.337-100.327C492.308,322.531,447.394,277.569,392.15,277.471z M19.692,419.414v-11.952
                    c0-64.481,31.231-124.615,83.788-161.769c28,34.01,70.019,54.048,114.221,54.048c44.202,0,86.221-20.038,114.221-54.048
                    c13.962,9.87,26.487,21.413,37.421,34.438c-44.448,10.3-77.709,50.132-77.709,97.668c0,14.855,3.332,28.919,9.153,41.615H19.692z
                     M391.971,458.433c-44.471,0-80.644-36.173-80.644-80.635c0-44.471,36.173-80.644,80.644-80.644s80.644,36.173,80.644,80.644
                    C472.615,422.26,436.442,458.433,391.971,458.433z"/>
            </g>
        </g>
        <g>
            <g>
                <path d="M217.702,14.183c-59.529,0-107.952,48.433-107.952,107.962c0,59.529,48.423,107.952,107.952,107.952
                    c59.529,0,107.962-48.423,107.962-107.952C325.663,62.615,277.231,14.183,217.702,14.183z M217.702,210.404
                    c-48.663,0-88.26-39.596-88.26-88.26c0-48.673,39.596-88.269,88.26-88.269c48.673,0,88.269,39.596,88.269,88.269
                    C305.971,170.808,266.375,210.404,217.702,210.404z"/>
            </g>
        </g>
    </symbol>
    <symbol id="slb-logo-path" viewBox="0 0 28 28">
        <title>Logo Sport Lisboa e Benfica</title>
        <desc>Só para os grandes!</desc>
        <path d="M28.001,1.07c-0.185,0.235-0.558,0.476-0.747,0.551c-0.192,0.078-0.327,0.113-0.468,0.272 c-0.124,0.14-0.247,0.278-0.398,0.388c-0.162,0.118-0.238,0.157-0.36,0.319c-0.132,0.175-0.273,0.317-0.452,0.445 c-0.15,0.108-0.312,0.206-0.48,0.281c-0.168,0.075-0.253,0.277-0.396,0.395c-0.273,0.227-0.576,0.425-0.909,0.549 c-0.179,0.067-0.36,0.125-0.547,0.17c-0.101,0.023-0.2,0.045-0.301,0.066c-0.063,0.013-0.137,0.154-0.188,0.202 c-0.255,0.238-0.618,0.344-0.954,0.374c-0.234,0.021-0.31,0.029-0.505,0.152c-0.063,0.039-0.128,0.068-0.197,0.091 c-0.077,0.025-0.079,0.141-0.129,0.199c-0.054,0.063-0.159,0.044-0.159,0.136c0,0.095-0.036,0.185-0.095,0.257 c-0.089,0.11-0.261,0.11-0.373,0.153c-0.155,0.061-0.237,0.091-0.414,0.074c-0.136-0.014-0.188,0.038-0.342,0.053 c-0.161,0.017-0.262-0.031-0.33-0.071c-0.036-0.021-0.08-0.016-0.109,0.015c-0.037,0.037-0.074,0.073-0.103,0.089 c-0.075,0.044-0.173,0.08-0.26,0.08c-0.062,0-0.135-0.051-0.175,0.003c-0.041,0.053-0.106,0.086-0.169,0.105 c-0.163,0.049-0.352,0.037-0.48-0.081c-0.149-0.136-0.152,0.018-0.312,0.106c-0.107,0.06-0.255,0.063-0.368,0.016 c-0.066-0.028-0.067-0.11-0.14-0.073c-0.063,0.032-0.124,0.047-0.119,0.122c0.009,0.119,0.013,0.239-0.064,0.337 c-0.042-0.112-0.155-0.187-0.26-0.23c0.231,0.251,0.157,0.629-0.004,0.901c-0.06-0.043-0.112-0.097-0.156-0.156 c-0.024,0.216-0.037,0.428-0.122,0.631c-0.117,0.279-0.131,0.028-0.209-0.069c-0.089,0.182-0.271,0.284-0.123,0.474 c0.133,0.174,0.365,0.295,0.572,0.371c0.229,0.084,0.336,0.166,0.528,0.31c0.048,0.035,0.084,0.076,0.114,0.127 c0.093,0.043,1.059,0.51,1.334,0.565c0.491-0.042,1.123,0.233,1.58,0.392c0.614,0.213,1.213,0.474,1.798,0.759 c1.097,0.535,2.155,1.158,3.163,1.849c-0.555,0.048-1.111,0.096-1.667,0.144c0.057,0.468,0.114,0.936,0.172,1.403 c-0.457-0.326-0.927-0.638-1.401-0.938c1.973,3.323,1.757,7.648-0.526,10.75c-1.98,2.689-5.267,4.159-8.555,3.828 c-2.975-0.298-5.69-2.063-7.218-4.673c-1.769-3.02-1.759-6.898,0.032-9.909c-0.478,0.3-0.949,0.612-1.409,0.94 c0.06-0.468,0.119-0.936,0.178-1.403c-0.554-0.048-1.107-0.096-1.662-0.144c0.876-0.598,1.791-1.145,2.733-1.63 c0.617-0.318,1.248-0.619,1.896-0.865c0.57-0.216,1.197-0.558,2.024-0.485c0.472-0.25,1.025-0.39,1.459-0.686 c0.212-0.146,0.387-0.198,0.636-0.259c0.261-0.063,0.406-0.142,0.573-0.354c0.191-0.244,0.09-0.344,0.02-0.601 c-0.292,0.358-0.282-0.568-0.282-0.725c0,0.001-0.18-0.015-0.215-0.137c-0.045-0.154,0.074-0.325,0.05-0.482 c-0.319,0.309-0.149-0.229-0.113-0.388c-0.165,0-0.3,0.005-0.451-0.049c-0.06-0.021-0.204,0.155-0.284,0.176 c-0.136,0.038-0.289,0.071-0.412-0.024c-0.051-0.039-0.075-0.07-0.107-0.125c-0.061-0.101-0.087,0.056-0.134,0.092 c-0.125,0.097-0.246,0.194-0.411,0.194c-0.143,0-0.196-0.197-0.308-0.154C9.667,6.316,9.571,6.313,9.444,6.276 C9.262,6.224,9.253,6.238,9.068,6.252C8.904,6.265,8.824,6.152,8.692,6.127c-0.138-0.025-0.25,0.078-0.394-0.031 C8.19,6.015,8.058,6.062,7.933,5.993C7.784,5.913,7.8,5.787,7.707,5.689C7.624,5.604,7.49,5.625,7.394,5.527 c-0.125-0.128-0.079-0.221-0.263-0.28C6.769,5.132,6.393,5.09,6.033,4.957c-0.171-0.063-0.326-0.146-0.47-0.262 C5.41,4.656,5.306,4.644,5.045,4.576C4.68,4.493,4.351,4.308,4.037,4.106c-0.256-0.165-0.465-0.407-0.655-0.6 c-0.4-0.146-0.625-0.31-0.915-0.567C2.364,2.846,2.336,2.761,2.211,2.704C2.028,2.62,1.825,2.546,1.671,2.41 c-0.087-0.077-0.28-0.268-0.329-0.36c-0.706-0.114-1.515-0.95-1.31-1.085C0.089,0.926,0.813,0.952,1,0.952 c1.662,0,3.327,0.024,4.989,0.011c0.794-0.007,1.585,0.048,2.376,0.123c0.783,0.074,1.51,0.193,2.079,0.798 c0.149,0.159,0.21,0.434,0.387,0.558c0.219,0.154,0.448,0.119,0.622,0.38c0.261,0.389,0.627,1.095,1.151,0.66 c0.1-0.083,0.164-0.174,0.222-0.289c0.046-0.089-0.217-0.03-0.271-0.049c-0.296-0.104-0.003-0.211,0.091-0.341 c0.034-0.047,0.154-0.193,0.143-0.259c-0.021-0.128-0.124-0.078-0.25-0.093c-0.313-0.036-0.063-0.206-0.008-0.413 c-0.069,0-0.239,0.083-0.298,0.052c-0.093-0.049-0.058-0.317-0.143-0.423c-0.196-0.244-0.559-0.235-0.746-0.492 c-0.053-0.072-0.164-0.334-0.057-0.389c0.061-0.032,0.236,0.146,0.305,0.177c0.252,0.115,0.343-0.153,0.162-0.318 c-0.139-0.127-0.34-0.127-0.507-0.082c-0.137,0.038-0.374,0.226-0.435,0.082c-0.051-0.124,0.111-0.379,0.196-0.451 C11.169,0.058,11.383,0,11.589,0c0.168,0,0.337,0.013,0.484,0.106c0.085,0.054,0.285-0.121,0.539-0.076 c0.395,0.071,0.676,0.256,0.995,0.39c0.206,0.086,0.409,0.116,0.631,0.105c0.055-0.003,0.177-0.091,0.22-0.039 c0.043,0.052-0.114,0.209-0.141,0.238c0.138,0.042,0.375,0.048,0.485,0.151c0.176,0.164-0.12,0.11-0.233,0.186 c0.14,0.066,0.523,0.106,0.541,0.294c-0.109-0.01-0.237-0.009-0.314,0.081c0.293,0.158,0.598,0.135,0.849,0.387 c0.084,0.084,0.189,0.19,0.207,0.313c0.021,0.138-0.17,0.06-0.256,0.093c0.184,0.214,0.37,0.353,0.479,0.623 c0.08,0.199-0.211,0.037-0.299,0.092c0.146,0.115,0.265,0.246,0.387,0.386c0.149,0.169,0.216,0.172,0.436,0.095 c0.179-0.063,0.191-0.2,0.245-0.356c0.063-0.185,0.158-0.339,0.296-0.477c0.126-0.126,0.276-0.18,0.409-0.281 c0.143-0.107,0.24-0.297,0.357-0.446c0.247-0.316,0.579-0.454,0.938-0.589c0.776-0.292,1.554-0.3,2.369-0.322 c0.823-0.021,1.648,0,2.472,0c0.782,0,1.563-0.02,2.346-0.013c0.314,0.002,1.485-0.005,1.905-0.008 C28.005,0.933,28.044,1.015,28.001,1.07z"></path>
    </symbol>
    <symbol id="icon-video" viewBox="0 0 106 106">
        <title>Tocar</title>
        <desc>Tocar Vídeo</desc>
        <path style="fill-rule:evenodd;clip-rule:evenodd;stroke:#FFFFFF;stroke-width:2;stroke-miterlimit:10;" d="M53,1 C24.282,1,1,24.282,1,53c0,28.72,23.282,52,52,52c28.72,0,52-23.279,52-52C105,24.282,81.72,1,53,1z M41.443,72.687V33.312 L72.943,53L41.443,72.687z" />
    </symbol>
    <symbol id="icon-image" viewBox="0 0 106 106">
        <path style="fill-rule:evenodd;clip-rule:evenoshadd;" d="M52.75,1C24.168,1,1,24.169,1,52.75 c0,28.581,23.168,51.75,51.75,51.75c28.581,0,51.75-23.169,51.75-51.75C104.5,24.169,81.331,1,52.75,1z M72.719,71.969H44.595 V61.656H34.282V33.531h28.125v10.313h10.312V71.969z" />
        <polygon style="fill-opacity:0.3; fill: #000000;" points="62.406,43.844 62.406,61.656 44.595,61.656 44.594,71.969 72.718,71.969 72.718,43.844 " />
        <path style="fill:none;stroke:#FFFFFF;stroke-width:2;stroke-linecap:round;stroke-linejoin:round;stroke-miterlimit:10;" d=" M67.889,43.844h4.829v28.125H44.594c0,0,0-3.618,0-4.824" />
        <polyline style="fill-opacity:0.3;stroke:#FFFFFF;stroke-width:2;stroke-linecap:round;stroke-linejoin:round;stroke-miterlimit:10; fill: #000000;" points=" 34.281,33.531 62.406,33.531 62.406,61.656 34.281,61.656 34.281,33.531 "/> <path style="fill-rule:evenodd;clip-rule:evenodd;fill:none;stroke:#FFFFFF;stroke-width:2;stroke-miterlimit:10;" d="M52.75,1 c28.581,0,51.75,23.169,51.75,51.75c0,28.581-23.169,51.75-51.75,51.75C24.168,104.5,1,81.331,1,52.75C1,24.169,24.168,1,52.75,1z" />
    </symbol>
    <symbol id="letter" viewBox="0 0 31 19">
        <polyline stroke="#242424" stroke-linecap="round" stroke-linejoin="round" stroke-miterlimit="10" points="0.5,0.5
            15.459,10.806 30.417,0.5 " />
        <rect x="0.5" y="0.5" stroke="#242424" stroke-linecap="round" stroke-linejoin="round" stroke-miterlimit="10" width="30" height="18" />
    </symbol>
    <symbol id="letter-slb" viewBox="0 0 31 30">
        <path fill="none" stroke="c30000" style="stroke: #c30000;" stroke-linecap="round" stroke-linejoin="round" stroke-miterlimit="10" d="M30.417,10.807l-2.811-1.85 M20.165,3.742L15.459,0.5l-4.735,3.358 M3.239,8.82L0.5,10.806 M27.588,11.001V3.953H3.24v7.049 M3.239,11.001v5.631V11.001H0.5v18h30v-18h-2.913v5.53v-5.53 M0.5,14.733L15.458,25.04l14.959-10.306" />
        <!--<use xlink:href="#slb-logo-path"  width="12.875" height="12.662" x="8.786" y="7.036" />-->

        <g>
            <svg id="slb-logo-path" viewBox="0 0 28 28" width="12.875" height="12.662" x="8.786" y="7.036">
                <title>Logo Sport Lisboa e Benfica</title>
                <desc>Só para os grandes!</desc>
                <path d="M28.001,1.07c-0.185,0.235-0.558,0.476-0.747,0.551c-0.192,0.078-0.327,0.113-0.468,0.272 c-0.124,0.14-0.247,0.278-0.398,0.388c-0.162,0.118-0.238,0.157-0.36,0.319c-0.132,0.175-0.273,0.317-0.452,0.445 c-0.15,0.108-0.312,0.206-0.48,0.281c-0.168,0.075-0.253,0.277-0.396,0.395c-0.273,0.227-0.576,0.425-0.909,0.549 c-0.179,0.067-0.36,0.125-0.547,0.17c-0.101,0.023-0.2,0.045-0.301,0.066c-0.063,0.013-0.137,0.154-0.188,0.202 c-0.255,0.238-0.618,0.344-0.954,0.374c-0.234,0.021-0.31,0.029-0.505,0.152c-0.063,0.039-0.128,0.068-0.197,0.091 c-0.077,0.025-0.079,0.141-0.129,0.199c-0.054,0.063-0.159,0.044-0.159,0.136c0,0.095-0.036,0.185-0.095,0.257 c-0.089,0.11-0.261,0.11-0.373,0.153c-0.155,0.061-0.237,0.091-0.414,0.074c-0.136-0.014-0.188,0.038-0.342,0.053 c-0.161,0.017-0.262-0.031-0.33-0.071c-0.036-0.021-0.08-0.016-0.109,0.015c-0.037,0.037-0.074,0.073-0.103,0.089 c-0.075,0.044-0.173,0.08-0.26,0.08c-0.062,0-0.135-0.051-0.175,0.003c-0.041,0.053-0.106,0.086-0.169,0.105 c-0.163,0.049-0.352,0.037-0.48-0.081c-0.149-0.136-0.152,0.018-0.312,0.106c-0.107,0.06-0.255,0.063-0.368,0.016 c-0.066-0.028-0.067-0.11-0.14-0.073c-0.063,0.032-0.124,0.047-0.119,0.122c0.009,0.119,0.013,0.239-0.064,0.337 c-0.042-0.112-0.155-0.187-0.26-0.23c0.231,0.251,0.157,0.629-0.004,0.901c-0.06-0.043-0.112-0.097-0.156-0.156 c-0.024,0.216-0.037,0.428-0.122,0.631c-0.117,0.279-0.131,0.028-0.209-0.069c-0.089,0.182-0.271,0.284-0.123,0.474 c0.133,0.174,0.365,0.295,0.572,0.371c0.229,0.084,0.336,0.166,0.528,0.31c0.048,0.035,0.084,0.076,0.114,0.127 c0.093,0.043,1.059,0.51,1.334,0.565c0.491-0.042,1.123,0.233,1.58,0.392c0.614,0.213,1.213,0.474,1.798,0.759 c1.097,0.535,2.155,1.158,3.163,1.849c-0.555,0.048-1.111,0.096-1.667,0.144c0.057,0.468,0.114,0.936,0.172,1.403 c-0.457-0.326-0.927-0.638-1.401-0.938c1.973,3.323,1.757,7.648-0.526,10.75c-1.98,2.689-5.267,4.159-8.555,3.828 c-2.975-0.298-5.69-2.063-7.218-4.673c-1.769-3.02-1.759-6.898,0.032-9.909c-0.478,0.3-0.949,0.612-1.409,0.94 c0.06-0.468,0.119-0.936,0.178-1.403c-0.554-0.048-1.107-0.096-1.662-0.144c0.876-0.598,1.791-1.145,2.733-1.63 c0.617-0.318,1.248-0.619,1.896-0.865c0.57-0.216,1.197-0.558,2.024-0.485c0.472-0.25,1.025-0.39,1.459-0.686 c0.212-0.146,0.387-0.198,0.636-0.259c0.261-0.063,0.406-0.142,0.573-0.354c0.191-0.244,0.09-0.344,0.02-0.601 c-0.292,0.358-0.282-0.568-0.282-0.725c0,0.001-0.18-0.015-0.215-0.137c-0.045-0.154,0.074-0.325,0.05-0.482 c-0.319,0.309-0.149-0.229-0.113-0.388c-0.165,0-0.3,0.005-0.451-0.049c-0.06-0.021-0.204,0.155-0.284,0.176 c-0.136,0.038-0.289,0.071-0.412-0.024c-0.051-0.039-0.075-0.07-0.107-0.125c-0.061-0.101-0.087,0.056-0.134,0.092 c-0.125,0.097-0.246,0.194-0.411,0.194c-0.143,0-0.196-0.197-0.308-0.154C9.667,6.316,9.571,6.313,9.444,6.276 C9.262,6.224,9.253,6.238,9.068,6.252C8.904,6.265,8.824,6.152,8.692,6.127c-0.138-0.025-0.25,0.078-0.394-0.031 C8.19,6.015,8.058,6.062,7.933,5.993C7.784,5.913,7.8,5.787,7.707,5.689C7.624,5.604,7.49,5.625,7.394,5.527 c-0.125-0.128-0.079-0.221-0.263-0.28C6.769,5.132,6.393,5.09,6.033,4.957c-0.171-0.063-0.326-0.146-0.47-0.262 C5.41,4.656,5.306,4.644,5.045,4.576C4.68,4.493,4.351,4.308,4.037,4.106c-0.256-0.165-0.465-0.407-0.655-0.6 c-0.4-0.146-0.625-0.31-0.915-0.567C2.364,2.846,2.336,2.761,2.211,2.704C2.028,2.62,1.825,2.546,1.671,2.41 c-0.087-0.077-0.28-0.268-0.329-0.36c-0.706-0.114-1.515-0.95-1.31-1.085C0.089,0.926,0.813,0.952,1,0.952 c1.662,0,3.327,0.024,4.989,0.011c0.794-0.007,1.585,0.048,2.376,0.123c0.783,0.074,1.51,0.193,2.079,0.798 c0.149,0.159,0.21,0.434,0.387,0.558c0.219,0.154,0.448,0.119,0.622,0.38c0.261,0.389,0.627,1.095,1.151,0.66 c0.1-0.083,0.164-0.174,0.222-0.289c0.046-0.089-0.217-0.03-0.271-0.049c-0.296-0.104-0.003-0.211,0.091-0.341 c0.034-0.047,0.154-0.193,0.143-0.259c-0.021-0.128-0.124-0.078-0.25-0.093c-0.313-0.036-0.063-0.206-0.008-0.413 c-0.069,0-0.239,0.083-0.298,0.052c-0.093-0.049-0.058-0.317-0.143-0.423c-0.196-0.244-0.559-0.235-0.746-0.492 c-0.053-0.072-0.164-0.334-0.057-0.389c0.061-0.032,0.236,0.146,0.305,0.177c0.252,0.115,0.343-0.153,0.162-0.318 c-0.139-0.127-0.34-0.127-0.507-0.082c-0.137,0.038-0.374,0.226-0.435,0.082c-0.051-0.124,0.111-0.379,0.196-0.451 C11.169,0.058,11.383,0,11.589,0c0.168,0,0.337,0.013,0.484,0.106c0.085,0.054,0.285-0.121,0.539-0.076 c0.395,0.071,0.676,0.256,0.995,0.39c0.206,0.086,0.409,0.116,0.631,0.105c0.055-0.003,0.177-0.091,0.22-0.039 c0.043,0.052-0.114,0.209-0.141,0.238c0.138,0.042,0.375,0.048,0.485,0.151c0.176,0.164-0.12,0.11-0.233,0.186 c0.14,0.066,0.523,0.106,0.541,0.294c-0.109-0.01-0.237-0.009-0.314,0.081c0.293,0.158,0.598,0.135,0.849,0.387 c0.084,0.084,0.189,0.19,0.207,0.313c0.021,0.138-0.17,0.06-0.256,0.093c0.184,0.214,0.37,0.353,0.479,0.623 c0.08,0.199-0.211,0.037-0.299,0.092c0.146,0.115,0.265,0.246,0.387,0.386c0.149,0.169,0.216,0.172,0.436,0.095 c0.179-0.063,0.191-0.2,0.245-0.356c0.063-0.185,0.158-0.339,0.296-0.477c0.126-0.126,0.276-0.18,0.409-0.281 c0.143-0.107,0.24-0.297,0.357-0.446c0.247-0.316,0.579-0.454,0.938-0.589c0.776-0.292,1.554-0.3,2.369-0.322 c0.823-0.021,1.648,0,2.472,0c0.782,0,1.563-0.02,2.346-0.013c0.314,0.002,1.485-0.005,1.905-0.008 C28.005,0.933,28.044,1.015,28.001,1.07z"></path>
            </svg>
        </g>

    </symbol>
    <symbol id="envelope-2" viewBox="0 0 31 19">
        <polyline fill="none" stroke-linecap="round" stroke-linejoin="round" stroke-miterlimit="10" points="0.5,0.5
	        15.459,10.806 30.417,0.5 " />
        <rect x="0.5" y="0.5" fill="none" stroke-linecap="round" stroke-linejoin="round" stroke-miterlimit="10" width="30" height="18" />
    </symbol>
    <symbol id="magnifying-glass" viewBox="0 0 31 31">
        <path fill="none" stroke-linecap="round" stroke-linejoin="round" stroke-miterlimit="10" d="M19.252,3.726
            c4.29,4.301,4.29,11.274,0,15.575c-4.29,4.3-11.245,4.3-15.535,0c-4.29-4.301-4.29-11.274,0-15.575S14.962-0.575,19.252,3.726z" />
        <line fill="none" stroke-linecap="round" stroke-linejoin="round" stroke-miterlimit="10" x1="19.471" y1="19.442" x2="30.5" y2="30.5" />
    </symbol>
    <symbol id="phone" viewBox="0 0 33 33">
        <path fill="none" stroke-linecap="round" stroke-linejoin="round" stroke-miterlimit="10" d="M19.979,23.335
            c0,0,2.699-1.545,3.406-1.917c0.705-0.372,1.435-0.466,1.878-0.196c0.671,0.411,6.309,4.161,6.784,4.493
            c0.474,0.333,0.703,1.283,0.05,2.213c-0.65,0.932-3.649,4.611-4.919,4.572c-1.273-0.042-6.564-0.158-16.542-10.138
            C0.659,12.384,0.541,7.091,0.5,5.819C0.459,4.547,4.14,1.547,5.071,0.897c0.932-0.65,1.883-0.406,2.214,0.052
            c0.376,0.52,4.083,6.14,4.491,6.784c0.279,0.44,0.176,1.174-0.196,1.879c-0.371,0.707-1.917,3.406-1.917,3.406
            s1.09,1.858,4.774,5.542C18.122,22.244,19.979,23.335,19.979,23.335z" />
    </symbol>
    <symbol id="user" viewBox="0 0 31 32">
        <path fill="none" stroke-linecap="round" stroke-linejoin="round" stroke-miterlimit="10" d="M29.901,23.948
            c-0.9-1.403-3.924-2.277-6.918-3.524c-2.993-1.247-3.703-1.681-3.703-1.681l-0.027-2.871c0,0,1.121-0.862,1.47-3.564
            c0.7,0.203,1.438-1.046,1.477-1.705c0.039-0.633-0.097-2.394-0.952-2.217c0.174-1.323,0.301-2.516,0.24-3.146
            C21.265,2.934,18.992,0.5,15.5,0.5c-3.493,0-5.764,2.434-5.986,4.74C9.451,5.87,9.578,7.063,9.753,8.386
            C8.897,8.209,8.762,9.97,8.8,10.603c0.041,0.659,0.776,1.908,1.478,1.705c0.348,2.702,1.47,3.564,1.47,3.564l-0.028,2.871
            c0,0-0.71,0.434-3.703,1.681c-2.995,1.247-6.018,2.121-6.918,3.524c-0.808,1.259-0.565,7.3-0.565,7.3H15.5h14.966
            C30.466,31.248,30.708,25.207,29.901,23.948z" />
    </symbol>
    <symbol id="share" viewBox="0 0 32 32">

        <polyline fill="none" stroke-width="2" stroke-linecap="round" stroke-linejoin="round" stroke-miterlimit="10" points="
                  31,12.158 31,1 19.842,1 " />
        <line fill="none" stroke-width="2" stroke-linecap="round" stroke-linejoin="round" stroke-miterlimit="10" x1="14.147" y1="17.853" x2="31.001" y2="1" />
        <polyline fill="none" stroke-width="2" stroke-linecap="round" stroke-linejoin="round" stroke-miterlimit="10" points="
                  12.683,1 1,1 1,31 31,31 31,19.34 " />

    </symbol>
    <symbol id="shopping-bag" viewBox="0 0 22 31">
        <polygon fill="none" stroke-linecap="round" stroke-linejoin="round" stroke-miterlimit="10" points="
                 20.001,7.513 21.163,30.5 0.5,30.5 1.662,7.513 " />
        <path fill="none" stroke-linecap="round" stroke-linejoin="round" stroke-miterlimit="10" d="M6.605,10.96V4.727
            c0-2.334,1.892-4.227,4.226-4.227c2.333,0,4.226,1.893,4.226,4.227v6.233" />
    </symbol>
    <symbol id="cross" viewBox="0 0 31 31">
        <polyline fill="none" stroke-miterlimit="10" points="0.354,30.354 15.336,15.354 0.354,0.354 " />
        <polyline fill="none" stroke-miterlimit="10" points="30.353,0.354 15.371,15.354 30.353,30.354 " />
    </symbol>
    <symbol id="document" viewBox="0 0 24 32">
        <g>
            <defs>
                <rect id="SVGID_1_" width="24" height="32" />
            </defs>
            <clipPath id="SVGID_2_">
                <use xlink:href="#SVGID_1_" overflow="visible" />
            </clipPath>

            <polyline clip-path="url(#SVGID_2_)" fill="none" stroke-width="2" stroke-linecap="round" stroke-linejoin="round" stroke-miterlimit="10" points="
                      23,6.4 23,31 1,31 1,1 17.5,1 " />

            <polygon clip-path="url(#SVGID_2_)" fill="none" stroke-width="2" stroke-linecap="round" stroke-linejoin="round" stroke-miterlimit="10" points="
                     23,6.4 17.5,1 17.5,6.4 " />
        </g>
        <line fill="none" stroke-width="2" stroke-linecap="round" stroke-linejoin="round" stroke-miterlimit="10" x1="5.322" y1="17.169" x2="19.18" y2="17.169" />
        <line fill="none" stroke-width="2" stroke-linecap="round" stroke-linejoin="round" stroke-miterlimit="10" x1="5.322" y1="12.969" x2="19.18" y2="12.969" />
        <line fill="none" stroke-width="2" stroke-linecap="round" stroke-linejoin="round" stroke-miterlimit="10" x1="5.322" y1="21.369" x2="19.18" y2="21.369" />
        <line fill="none" stroke-width="2" stroke-linecap="round" stroke-linejoin="round" stroke-miterlimit="10" x1="5.322" y1="25.569" x2="19.18" y2="25.569" />
    </symbol>
    <symbol id="link" viewBox="0 0 32 32">
        <path fill="none" stroke-width="2" stroke-linecap="round" stroke-linejoin="round" stroke-miterlimit="10" d="
              M6.757,17.718c0,0-4.225,4.226-4.239,4.238c-2.037,2.082-2.024,5.42,0.041,7.485c2.068,2.068,5.415,2.078,7.496,0.03
              c0.01-0.011,4.218-4.219,4.228-4.229" />
        <path fill="none" stroke-width="2" stroke-linecap="round" stroke-linejoin="round" stroke-miterlimit="10" d="
              M13.558,15.208c-1.861-0.66-4.017-0.253-5.515,1.223c-0.01,0.01-1.841,1.84-1.851,1.85" />
        <path fill="none" stroke-width="2" stroke-linecap="round" stroke-linejoin="round" stroke-miterlimit="10" d="
              M13.718,25.808c0,0,1.848-1.848,1.861-1.862c1.467-1.498,1.871-3.648,1.211-5.506" />
        <path fill="none" stroke-width="2" stroke-linecap="round" stroke-linejoin="round" stroke-miterlimit="10" d="
              M25.243,14.283c0,0,4.226-4.226,4.239-4.239c2.037-2.082,2.023-5.42-0.041-7.485c-2.068-2.068-5.415-2.078-7.496-0.03
              c-0.01,0.01-4.218,4.218-4.228,4.228" />
        <path fill="none" stroke-width="2" stroke-linecap="round" stroke-linejoin="round" stroke-miterlimit="10" d="
              M18.441,16.791c1.861,0.66,4.018,0.253,5.516-1.223c0.01-0.01,1.841-1.84,1.851-1.85" />
        <path fill="none" stroke-width="2" stroke-linecap="round" stroke-linejoin="round" stroke-miterlimit="10" d="
              M18.281,6.192c0,0-1.848,1.848-1.86,1.862c-1.467,1.498-1.871,3.649-1.211,5.506" />
        <line fill="none" stroke-width="2" stroke-linecap="round" stroke-linejoin="round" stroke-miterlimit="10" x1="10.827" y1="21.173" x2="21.173" y2="10.827" />
    </symbol>
    <symbol id="football-player" viewBox="0 0 57.418 66.114">
        <path fill="none" stroke-width="7" stroke-linecap="round" stroke-linejoin="round" stroke-miterlimit="10" d="
              M5.483,31.022c4.22,2.781,7.48,5.993,11.151,9.466c0.383,0.362,0.778,0.738,1.274,0.918c1.248,0.451,2.545-0.479,3.498-1.403
              c1.342-1.301,2.574-2.716,3.679-4.224" />
        <path fill="none" stroke-width="6" stroke-linecap="round" stroke-linejoin="round" stroke-miterlimit="10" d="
              M33.829,18.085c5.596,1.655,8.611,6.125,11.772,11.029" />
        <path fill="none" stroke-width="7" stroke-linecap="round" stroke-linejoin="round" stroke-miterlimit="10" d="
              M32.68,7.091c-0.906,0.411-2.053-0.406-2.125-1.398c-0.071-0.992,0.75-1.907,1.718-2.137c0.838-0.199,1.857,0.134,2.179,0.933
              c0.32,0.799-0.472,1.878-1.29,1.609" />
        <path fill="none" stroke-width="7" stroke-linecap="round" stroke-linejoin="round" stroke-miterlimit="10" d="
              M20.916,23.464c0.091,1.169,0.182,2.338,0.273,3.507c0.211,2.709,0.576,5.729,2.674,7.456c0.795,0.653,2.088,1.001,2.781,0.24
              c0.468-0.514,0.439-1.292,0.416-1.987c-0.07-2.106,0.178-4.215,0.639-6.271c0.517-2.309,1.309-4.61,1.175-6.973
              c-0.134-2.362-1.621-4.488-3.932-5c0.074,4.4,0.253,8.412,0.326,12.812c0.104-4.989-2.169-10.283-4.352-14.769
              c2.459,1.297,8.255,3.302,10.623,4.76" />
        <path fill="none" stroke-width="7" stroke-linecap="round" stroke-linejoin="round" stroke-miterlimit="10" d="
              M16.634,40.489c0.383,0.363,0.778,0.738,1.274,0.917c1.248,0.452,2.545-0.478,3.498-1.402c1.342-1.301,2.574-2.716,3.679-4.224" />
        <path fill="none" stroke-width="7" stroke-linecap="round" stroke-linejoin="round" stroke-miterlimit="10" d="
              M33.624,44.075c-2.23-2.741-5.535-4.911-6.292-8.363" />
        <path fill="none" stroke-width="7" stroke-linecap="round" stroke-linejoin="round" stroke-miterlimit="10" d="
              M20.916,12.479c0.35,0.381-0.415,0.853-0.414,1.37c0,2.449,0.414,6.674,0.414,9.123" />
        <path fill="none" stroke-width="7" stroke-linecap="round" stroke-linejoin="round" stroke-miterlimit="10" d="
              M40.041,62.614c-0.552-2.375-0.82-3.525-1.373-5.9c-1.037-4.459-2.155-9.088-5.044-12.639c-2.231-2.741-5.535-4.911-6.292-8.363" />
        <path fill="none" stroke-width="6" stroke-linecap="round" stroke-linejoin="round" stroke-miterlimit="10" d="
              M3,3.5c0.842,1.755,1.012,2.249,2.519,3.482c1.683,1.378,5.416,3.081,7.549,3.508c2.291,0.459,4.581,0.917,6.872,1.375
              c0.432,0.087,1.678,0.288,1.976,0.614c0.35,0.381-0.415,0.852-0.414,1.369c0,2.45,0.414,6.674,0.414,9.124" />
        <path d="M57.418,55.036c0-3.134-3.54-6.673-6.673-6.673c-3.132,0-5.672,3.539-5.672,6.673
	c0,3.132,2.54,5.672,5.672,5.672C53.878,60.708,57.418,58.167,57.418,55.036" />
    </symbol>
    <symbol id="basket-player" viewBox="0 0 57.716 63.087">
        <path fill="none" stroke-width="7" stroke-linecap="round" stroke-linejoin="round" stroke-miterlimit="10" d="
              M30.056,39.821c0.061,3.71,0.132,7.489,1.316,11.006c1.053,3.128,2.938,5.897,4.804,8.62" />
        <path fill="none" stroke-width="7" stroke-linecap="round" stroke-linejoin="round" stroke-miterlimit="10" d="
              M36.895,38.918c3.947,3.347,5.031,8.938,7.908,13.239c1.953,2.919,2.703,5.197,5.413,7.43" />
        <path fill="none" stroke-width="7" stroke-linecap="round" stroke-linejoin="round" stroke-miterlimit="10" d="
              M29.968,37.268c0.617-2.722-0.958-5.794-0.729-8.725c0.149-1.906-1.785-5.952-2.172-7.822c-0.386-1.869,1.735-1.575,0.29-2.731" />
        <path fill="none" stroke-width="6.159" stroke-linecap="round" stroke-linejoin="round" stroke-miterlimit="10" d="
              M7.055,31.408c4.072-0.843,7.302-4.037,10.121-7.246c2.818-3.21,4.608-5.631,8.417-7.368" />
        <path fill="none" stroke-width="6.159" stroke-linecap="round" stroke-linejoin="round" stroke-miterlimit="10" d="
              M31.838,15.478c2.114-0.237,2.095,1.008,3.892,2.205c1.901,1.267,3.818,2.545,5.449,4.18c2.747,2.757,4.574,6.468,5.327,10.385" />
        <path fill="none" stroke-width="7" stroke-linecap="round" stroke-linejoin="round" stroke-miterlimit="10" d="
              M31.629,20.828c0.643,0.25,1.087,0.861,1.454,1.469c2.213,3.667,2.808,8.128,3.352,12.435c0.103,0.82,0.191,1.773-0.232,2.436
              c-0.088,0.139-0.205,0.269-0.361,0.313c-0.149,0.043-0.309,0.001-0.455-0.051c-1.574-0.561-2.515-2.316-2.944-4.019
              c-0.43-1.701-0.488-3.495-1.005-5.168" />
        <path fill="none" stroke-width="6.159" stroke-linecap="round" stroke-linejoin="round" stroke-miterlimit="10" d="
              M26.832,5.387c-0.21-0.183,0.015-0.592,0.287-0.585c0.273,0.006,0.48,0.27,0.578,0.539c0.288,0.797-0.157,1.802-0.924,2.08
              c-0.39-0.617-0.535-1.453-0.206-2.109c0.33-0.656,1.211-0.992,1.791-0.571c0.734,0.535,0.547,1.746,0.093,2.556
              c-0.174,0.311-0.386,0.616-0.688,0.785c-0.711,0.395-1.646-0.181-1.91-0.981c-0.266-0.8-0.025-1.693,0.35-2.443
              c0.504-1.008,1.626-1.967,2.575-1.419c0.597,0.344,0.814,1.192,0.616,1.878c-0.199,0.687-0.726,1.218-1.308,1.59
              c-0.275,0.176-0.607,0.326-0.909,0.21c-0.216-0.083-0.368-0.287-0.476-0.5c-0.593-1.184,0.165-2.864,1.411-3.127" />
        <path fill="none" stroke-width="6" stroke-linecap="round" stroke-linejoin="round" stroke-miterlimit="10" d="
              M5.642,41.868c-0.117,0.204,0-0.217,0.229-0.271c0.728-0.168,1.384,0.771,1.072,1.45c-0.311,0.679-1.29,0.873-1.92,0.474
              c-0.63-0.401-0.893-1.235-0.761-1.97c0.078-0.434,0.322-0.885,0.745-1.007c0.848-0.244,1.379,0.889,1.528,1.757
              c0.09,0.534,0.103,1.229-0.39,1.452c-0.501,0.228-1.019-0.257-1.358-0.689C4.238,42.361,3.7,41.296,4.34,40.674
              c0.603-0.585,1.633-0.1,2.171,0.546c0.87,1.047,1.15,2.805,0.096,3.665c-1.211,0.989-3.208-0.14-3.543-1.667
              c-0.276-1.262,0.353-2.721,1.544-3.221s2.789,0.211,3.058,1.476c0.268,1.264-1.119,2.609-2.333,2.168
              c-1.063-0.389-1.452-1.721-1.358-2.849c0.051-0.597,0.207-1.212,0.607-1.657c0.4-0.444,1.093-0.666,1.622-0.385
              c0.451,0.24,0.668,0.755,0.853,1.231c0.206,0.528,0.414,1.075,0.404,1.641c-0.01,0.568-0.291,1.169-0.816,1.385
              c-0.524,0.217-1.25-0.137-1.264-0.704" />
        <path fill="none" stroke-width="7.186" stroke-linecap="round" stroke-linejoin="round" stroke-miterlimit="10" d="
              M25.608,16.835c1.854-0.288,2.708-0.576,4.563-0.863c0.906-0.141,2.012-0.198,2.54,0.592" />
    </symbol>
    <symbol id="handball-player" viewBox="0 0 44.496 67.717">
        <path fill="none" stroke-width="7.35" stroke-linecap="round" stroke-linejoin="round" stroke-miterlimit="10" d="
              M12.716,4.872c-0.197-0.458,0.453-0.989,0.862-0.705c0.41,0.284,0.141,1.079-0.357,1.055c-0.445-0.118-0.669-0.731-0.403-1.107
              c0.627-0.017,0.914,1.017,0.367,1.325c-0.838,0-1.583-0.815-1.508-1.65c0.361-0.398,1.104,0.334,0.712,0.701" />
        <path d="M21.126,16.553c0.163,0.133,0.326,0.266,0.489,0.399c0.482,0.518,1.053,0.885,1.712,1.1
	    c0.633,0.333,1.317,0.485,2.049,0.458c1.305,0,2.862-0.58,3.761-1.558c0.93-1.014,1.62-2.344,1.557-3.76
	    c-0.059-1.326-0.483-2.886-1.557-3.761c-0.163-0.132-0.326-0.266-0.489-0.399c-0.482-0.518-1.053-0.885-1.712-1.099
	    c-0.634-0.333-1.317-0.485-2.049-0.458c-1.305,0-2.862,0.579-3.76,1.557c-0.931,1.014-1.621,2.344-1.558,3.761
	    C19.627,14.118,20.052,15.678,21.126,16.553" />
        <path fill="none" stroke-width="7" stroke-linecap="round" stroke-linejoin="round" stroke-miterlimit="10" d="
              M21.191,23.436c2.02,1.494-0.768-0.824,0.919,1.037c2.122,2.339,0.765,0.342,1.573,3.395c1.466,5.539,3.924,12.475,2.05,17.89
              c-2.741,7.922-4.469,9.315-12.107,12.769C12.181,59.18,3.607,62.636,3.5,64.217" />
        <path fill="none" stroke-width="6" stroke-linecap="round" stroke-linejoin="round" stroke-miterlimit="10" d="
              M22.65,22.908c2.693,5.163,8.335,6.988,13.986,8.391" />
        <path fill="none" stroke-width="7" stroke-linecap="round" stroke-linejoin="round" stroke-miterlimit="10" d="
              M27.465,59.777c3.525-0.893,6.946-2.195,10.172-3.873c1.779-0.926,3.764-2.535,3.288-4.483c-0.212-0.873-0.891-1.544-1.545-2.159
              c-3.661-3.437-6.885-7.749-10.923-10.732" />
        <path fill="none" stroke-width="6" stroke-linecap="round" stroke-linejoin="round" stroke-miterlimit="10" d="
              M8.596,10.25c-1.738,3.468-1.243,2.38-2.488,5.797c-0.686,1.884-0.101,5.644,3.203,6.075c4.979,0.649,7.4,0.472,12.393-0.056" />
        <path fill="none" stroke-width="7" stroke-linecap="round" stroke-linejoin="round" stroke-miterlimit="10" d="
              M19.613,22.728c12.029-1.128,8.438,14.06,7.66,20.744c1.758-3.219,2.991-12.1,1.078-15.23
              C25.435,23.471,25.301,26.162,19.613,22.728" />
    </symbol>
    <symbol id="calendar" viewBox="0 0 105.473 86.134">
        <path d="M42.188,29.877c0,0.98-0.78,1.76-1.76,1.76c-0.969,0-1.749-0.78-1.749-1.76c0-0.969,0.78-1.749,1.749-1.749
	C41.407,28.128,42.188,28.909,42.188,29.877" />
        <path d="M54.496,29.877c0,0.98-0.791,1.76-1.76,1.76s-1.76-0.78-1.76-1.76c0-0.969,0.791-1.749,1.76-1.749
	S54.496,28.909,54.496,29.877" />
        <path d="M66.795,29.877c0,0.98-0.779,1.76-1.749,1.76c-0.979,0-1.76-0.78-1.76-1.76c0-0.969,0.78-1.749,1.76-1.749
	C66.016,28.128,66.795,28.909,66.795,29.877" />
        <path d="M79.104,29.877c0,0.98-0.789,1.76-1.76,1.76c-0.969,0-1.761-0.78-1.761-1.76c0-0.969,0.792-1.749,1.761-1.749
	C78.315,28.128,79.104,28.909,79.104,29.877" />
        <path d="M91.414,29.877c0,0.98-0.791,1.76-1.76,1.76c-0.971,0-1.76-0.78-1.76-1.76c0-0.969,0.789-1.749,1.76-1.749
	C90.623,28.128,91.414,28.909,91.414,29.877" />
        <path d="M17.579,43.947c0,0.97-0.789,1.761-1.76,1.761c-0.969,0-1.761-0.791-1.761-1.761c0-0.971,0.792-1.76,1.761-1.76
	C16.79,42.187,17.579,42.976,17.579,43.947" />
        <path d="M29.889,43.947c0,0.97-0.791,1.761-1.76,1.761c-0.971,0-1.76-0.791-1.76-1.761c0-0.971,0.789-1.76,1.76-1.76
	C29.098,42.187,29.889,42.976,29.889,43.947" />
        <path d="M42.188,43.947c0,0.97-0.78,1.761-1.76,1.761c-0.969,0-1.749-0.791-1.749-1.761c0-0.971,0.78-1.76,1.749-1.76
	C41.407,42.187,42.188,42.976,42.188,43.947" />
        <path d="M54.496,43.947c0,0.97-0.791,1.761-1.76,1.761s-1.76-0.791-1.76-1.761c0-0.971,0.791-1.76,1.76-1.76
	S54.496,42.976,54.496,43.947" />
        <path d="M66.795,43.947c0,0.97-0.779,1.761-1.749,1.761c-0.979,0-1.76-0.791-1.76-1.761c0-0.971,0.78-1.76,1.76-1.76
	C66.016,42.187,66.795,42.976,66.795,43.947" />
        <path d="M79.104,43.947c0,0.97-0.789,1.761-1.76,1.761c-0.969,0-1.761-0.791-1.761-1.761c0-0.971,0.792-1.76,1.761-1.76
	C78.315,42.187,79.104,42.976,79.104,43.947" />
        <path d="M91.414,43.947c0,0.97-0.791,1.761-1.76,1.761c-0.971,0-1.76-0.791-1.76-1.761c0-0.971,0.789-1.76,1.76-1.76
	C90.623,42.187,91.414,42.976,91.414,43.947" />
        <path d="M17.579,56.246c0,0.98-0.789,1.76-1.76,1.76c-0.969,0-1.761-0.779-1.761-1.76c0-0.969,0.792-1.749,1.761-1.749
	C16.79,54.497,17.579,55.277,17.579,56.246" />
        <path d="M29.889,56.246c0,0.98-0.791,1.76-1.76,1.76c-0.971,0-1.76-0.779-1.76-1.76c0-0.969,0.789-1.749,1.76-1.749
	C29.098,54.497,29.889,55.277,29.889,56.246" />
        <path d="M42.188,56.246c0,0.98-0.78,1.76-1.76,1.76c-0.969,0-1.749-0.779-1.749-1.76c0-0.969,0.78-1.749,1.749-1.749
	C41.407,54.497,42.188,55.277,42.188,56.246" />
        <path d="M54.496,56.246c0,0.98-0.791,1.76-1.76,1.76s-1.76-0.779-1.76-1.76c0-0.969,0.791-1.749,1.76-1.749
	S54.496,55.277,54.496,56.246" />
        <path d="M66.795,56.246c0,0.98-0.779,1.76-1.749,1.76c-0.979,0-1.76-0.779-1.76-1.76c0-0.969,0.78-1.749,1.76-1.749
	C66.016,54.497,66.795,55.277,66.795,56.246" />
        <path d="M79.104,56.246c0,0.98-0.789,1.76-1.76,1.76c-0.969,0-1.761-0.779-1.761-1.76c0-0.969,0.792-1.749,1.761-1.749
	C78.315,54.497,79.104,55.277,79.104,56.246" />
        <path d="M91.414,56.246c0,0.98-0.791,1.76-1.76,1.76c-0.971,0-1.76-0.779-1.76-1.76c0-0.969,0.789-1.749,1.76-1.749
	C90.623,54.497,91.414,55.277,91.414,56.246" />
        <path d="M17.579,70.316c0,0.969-0.789,1.76-1.76,1.76c-0.969,0-1.761-0.791-1.761-1.76c0-0.972,0.792-1.761,1.761-1.761
	C16.79,68.555,17.579,69.344,17.579,70.316" />
        <path d="M29.889,70.316c0,0.969-0.791,1.76-1.76,1.76c-0.971,0-1.76-0.791-1.76-1.76c0-0.972,0.789-1.761,1.76-1.761
	C29.098,68.555,29.889,69.344,29.889,70.316" />
        <path d="M42.188,70.316c0,0.969-0.78,1.76-1.76,1.76c-0.969,0-1.749-0.791-1.749-1.76c0-0.972,0.78-1.761,1.749-1.761
	C41.407,68.555,42.188,69.344,42.188,70.316" />
        <path d="M54.496,70.316c0,0.969-0.791,1.76-1.76,1.76s-1.76-0.791-1.76-1.76c0-0.972,0.791-1.761,1.76-1.761
	S54.496,69.344,54.496,70.316" />
        <path d="M66.795,70.316c0,0.969-0.779,1.76-1.749,1.76c-0.979,0-1.76-0.791-1.76-1.76c0-0.972,0.78-1.761,1.76-1.761
	C66.016,68.555,66.795,69.344,66.795,70.316" />
        <path d="M103.552,0H88.331H80.95H24.522h-7.381H0v86.134h105.474V0H103.552z M101.953,82.614H3.521V15.818h98.433V82.614z
	 M101.953,12.298H3.521v-8.79h14.058h84.375V12.298z" />
    </symbol>
    <symbol id="calendar-hover" viewBox="0 0 105.473 86.134">
        <path d="M3.521,15.818h98.433v66.794H3.521V15.818z M3.521,3.509h14.058h84.375v8.789H3.521V3.509z M0,86.134h105.473V0H0V86.134z" />
        <line fill="none" stroke-width="3.5" stroke-linecap="round" stroke-miterlimit="10" x1="52.625" y1="70.978" x2="52.625" y2="28.666" />
        <line fill="none" stroke-width="3.5" stroke-linecap="round" stroke-miterlimit="10" x1="52.625" y1="70.978" x2="37.666" y2="56.019" />
        <line fill="none" stroke-width="3.5" stroke-linecap="round" stroke-miterlimit="10" x1="52.625" y1="70.978" x2="67.584" y2="56.019" />
    </symbol>
    <symbol id="video-icon" viewBox="0 0 48 48">
        <path d="M36.449,23.339l-17.597-12c-0.247-0.167-0.563-0.183-0.825-0.046c-0.261,0.137-0.425,0.41-0.425,0.707v24
	c0,0.296,0.164,0.57,0.425,0.707c0.118,0.063,0.246,0.094,0.371,0.094c0.161,0,0.317-0.047,0.454-0.141l17.597-12
	c0.219-0.148,0.352-0.395,0.352-0.66S36.668,23.488,36.449,23.339 M19.199,34.484V13.516L34.578,24L19.199,34.484z" />
        <path d="M24,0C10.766,0,0,10.767,0,24c0,13.234,10.766,24,24,24c13.234,0,24-10.766,24-24C48,10.767,37.234,0,24,0 M24,46.398
	C11.648,46.398,1.602,36.352,1.602,24S11.648,1.603,24,1.603c12.352,0,22.398,10.046,22.398,22.397S36.352,46.398,24,46.398" />
    </symbol>
    <symbol id="document-icon" viewBox="0 0 37.602 48">
        <path d="M28.801,17.602h-20C8.359,17.602,8,17.957,8,18.398c0,0.446,0.359,0.801,0.801,0.801h20c0.441,0,0.801-0.355,0.801-0.801
	C29.602,17.957,29.242,17.602,28.801,17.602" />
        <path d="M8.801,12.801h8c0.441,0,0.801-0.36,0.801-0.801c0-0.441-0.36-0.801-0.801-0.801h-8C8.359,11.199,8,11.559,8,12
	C8,12.441,8.359,12.801,8.801,12.801" />
        <path d="M28.801,24h-20C8.359,24,8,24.359,8,24.801s0.359,0.801,0.801,0.801h20c0.441,0,0.801-0.359,0.801-0.801
	S29.242,24,28.801,24" />
        <path d="M28.801,30.398h-20C8.359,30.398,8,30.758,8,31.199S8.359,32,8.801,32h20c0.441,0,0.801-0.359,0.801-0.801
	S29.242,30.398,28.801,30.398" />
        <path d="M28.801,36.801h-20C8.359,36.801,8,37.156,8,37.602c0,0.441,0.359,0.797,0.801,0.797h20c0.441,0,0.801-0.355,0.801-0.797
	C29.602,37.156,29.242,36.801,28.801,36.801" />
        <path d="M25.93,0H0v48h37.603V11.668L25.93,0z M26.398,2.73l8.469,8.469h-8.469V2.73z M1.602,46.398V1.603h23.199V12.8H36v33.598
	H1.602z" />
    </symbol>
    <symbol id="hashtag-icon" viewBox="0 0 21.788 32.527">
        <line fill="none" stroke-linecap="round" stroke-linejoin="round" stroke-miterlimit="10" x1="10.158" y1="0.5" x2="5.128" y2="32.027" />
        <line fill="none" stroke-linecap="round" stroke-linejoin="round" stroke-miterlimit="10" x1="17.491" y1="0.5" x2="12.462" y2="32.027" />
        <line fill="none" stroke-linecap="round" stroke-linejoin="round" stroke-miterlimit="10" x1="1.5" y1="10.571" x2="21.289" y2="10.571" />
        <line fill="none" stroke-linecap="round" stroke-linejoin="round" stroke-miterlimit="10" x1="0.5" y1="22.008" x2="20.289" y2="22.008" />
    </symbol>
    <symbol id="weather-sun-icon" viewBox="0 0 32 32">
        <g>
            <path fill="#242424" d="M15.989,25.327c-5.148,0-9.338-4.189-9.338-9.338s4.189-9.338,9.338-9.338s9.338,4.189,9.338,9.338
				S21.138,25.327,15.989,25.327z M15.989,7.526c-4.667,0-8.463,3.796-8.463,8.463s3.796,8.463,8.463,8.463s8.463-3.796,8.463-8.463
				S20.656,7.526,15.989,7.526z" />
        </g>
        <g>
            <path fill="#242424" d="M21.215,3.978c-0.069,0-0.139-0.013-0.206-0.041c-0.275-0.114-0.406-0.43-0.292-0.705L21.9,0.375
				c0.114-0.275,0.431-0.404,0.704-0.292c0.275,0.114,0.406,0.43,0.292,0.705l-1.184,2.857C21.627,3.853,21.427,3.978,21.215,3.978z
				" />
        </g>
        <g>
            <path fill="#242424" d="M3.41,11.325c-0.069,0-0.139-0.013-0.207-0.041L0.346,10.1C0.071,9.985-0.06,9.67,0.055,9.395
				C0.169,9.119,0.483,8.991,0.76,9.103l2.857,1.184c0.274,0.114,0.405,0.43,0.291,0.705C3.822,11.2,3.622,11.325,3.41,11.325z" />
        </g>
        <g>
            <path fill="#242424" d="M31.441,22.94c-0.069,0-0.139-0.013-0.207-0.041l-2.856-1.184c-0.274-0.114-0.405-0.43-0.291-0.705
				s0.428-0.403,0.705-0.292l2.856,1.184c0.274,0.114,0.405,0.43,0.291,0.705C31.854,22.815,31.653,22.94,31.441,22.94z" />
        </g>
        <g>
            <path fill="#242424" d="M28.548,11.314c-0.211,0-0.411-0.125-0.498-0.332c-0.114-0.275,0.015-0.591,0.29-0.706l2.854-1.192
				c0.277-0.115,0.59,0.015,0.706,0.29c0.114,0.275-0.015,0.591-0.29,0.706l-2.854,1.192C28.688,11.301,28.617,11.314,28.548,11.314
				z" />
        </g>
        <g>
            <path fill="#242424" d="M10.82,3.952c-0.212,0-0.413-0.125-0.499-0.334L9.143,0.759C9.029,0.484,9.16,0.168,9.436,0.055
				c0.276-0.113,0.592,0.018,0.705,0.293l1.179,2.859c0.113,0.275-0.018,0.591-0.293,0.705C10.959,3.939,10.889,3.952,10.82,3.952z" />
        </g>
        <g>
            <path fill="#242424" d="M21.215,3.978c-0.069,0-0.139-0.013-0.206-0.041c-0.275-0.114-0.406-0.43-0.292-0.705L21.9,0.375
				c0.114-0.275,0.431-0.404,0.704-0.292c0.275,0.114,0.406,0.43,0.292,0.705l-1.184,2.857C21.627,3.853,21.427,3.978,21.215,3.978z
				" />
        </g>
        <g>
            <path fill="#242424" d="M28.548,11.314c-0.211,0-0.411-0.125-0.498-0.332c-0.114-0.275,0.015-0.591,0.29-0.706l2.854-1.192
				c0.277-0.115,0.59,0.015,0.706,0.29c0.114,0.275-0.015,0.591-0.29,0.706l-2.854,1.192C28.688,11.301,28.617,11.314,28.548,11.314
				z" />
        </g>
        <g>
            <path fill="#242424" d="M10.82,3.952c-0.212,0-0.413-0.125-0.499-0.334L9.143,0.759C9.029,0.484,9.16,0.168,9.436,0.055
				c0.276-0.113,0.592,0.018,0.705,0.293l1.179,2.859c0.113,0.275-0.018,0.591-0.293,0.705C10.959,3.939,10.889,3.952,10.82,3.952z" />
        </g>
        <g>
            <path fill="#242424" d="M9.607,31.99c-0.069,0-0.139-0.014-0.206-0.042c-0.275-0.113-0.406-0.43-0.292-0.704l1.184-2.857
				c0.114-0.276,0.432-0.404,0.704-0.292c0.275,0.114,0.406,0.43,0.292,0.705l-1.184,2.856C10.02,31.864,9.819,31.99,9.607,31.99z" />
        </g>
        <g>
            <path fill="#242424" d="M22.347,31.975c-0.212,0-0.414-0.127-0.499-0.335l-1.174-2.861c-0.113-0.276,0.019-0.591,0.294-0.704
				c0.275-0.114,0.592,0.018,0.704,0.294l1.174,2.861c0.113,0.276-0.019,0.591-0.294,0.704
				C22.484,31.961,22.415,31.975,22.347,31.975z" />
        </g>
        <g>
            <path fill="#242424" d="M0.578,22.966c-0.211,0-0.412-0.125-0.498-0.333c-0.114-0.275,0.016-0.591,0.291-0.706l2.855-1.187
				c0.271-0.112,0.591,0.016,0.705,0.292s-0.016,0.591-0.291,0.706l-2.855,1.187C0.718,22.953,0.647,22.966,0.578,22.966z" />
        </g>
    </symbol>
    <symbol id="weather-cloudy-icon" viewBox="0 0 32 32">
        <path fill="#242424" d="M31.221,11.441c-0.597-0.819-1.484-1.377-2.471-1.562c-0.861-2.261-3.017-3.759-5.46-3.759
			c-2.035,0-3.913,1.056-4.976,2.776c-0.289,0.001-0.581,0.037-0.878,0.097c-1.21-0.594-2.55-0.934-3.947-0.934
			c-3.809,0-7.162,2.37-8.445,5.929C2.146,14.445,0,16.932,0,19.902c0,3.3,2.685,5.985,5.985,5.985h15.429
			c3.7,0,6.711-3.011,6.711-6.711c0-0.501-0.059-0.987-0.164-1.457c1.909-0.04,3.553-1.324,3.927-3.092
			C32.128,13.493,31.892,12.361,31.221,11.441z M21.414,24.888H5.985C3.236,24.888,1,22.651,1,19.902
			c0-2.565,1.921-4.697,4.469-4.959c0.198-0.021,0.364-0.156,0.425-0.345c1.064-3.312,4.117-5.538,7.597-5.538
			c1.294,0,2.532,0.328,3.642,0.899c0,0,0,0,0,0c0.36,0.185,0.702,0.395,1.024,0.626c0.003,0.002,0.005,0.003,0.008,0.005
			c0.304,0.218,0.587,0.459,0.855,0.714c0.023,0.022,0.049,0.042,0.072,0.065c0.241,0.235,0.461,0.49,0.669,0.754
			c0.036,0.046,0.078,0.087,0.113,0.134c0.232,0.307,0.443,0.63,0.628,0.97c0.095,0.173,0.297,0.276,0.492,0.258
			c0.139-0.011,0.278-0.021,0.42-0.021c0.275,0,0.545,0.026,0.812,0.065c0.06,0.009,0.119,0.017,0.178,0.027
			c0.256,0.045,0.508,0.104,0.753,0.182c0.043,0.014,0.085,0.032,0.127,0.047c0.209,0.072,0.412,0.158,0.609,0.253
			c0.058,0.028,0.118,0.054,0.175,0.084c0.212,0.111,0.415,0.237,0.611,0.374c0.064,0.045,0.125,0.093,0.187,0.14
			c0.163,0.124,0.319,0.256,0.468,0.397c0.04,0.038,0.083,0.073,0.122,0.112c0.171,0.172,0.329,0.359,0.477,0.553
			c0.041,0.053,0.081,0.107,0.121,0.161c0.15,0.21,0.29,0.429,0.411,0.661c0.012,0.023,0.022,0.048,0.034,0.071
			c0.125,0.247,0.235,0.503,0.325,0.772c0.191,0.57,0.3,1.178,0.3,1.812C27.125,22.326,24.563,24.888,21.414,24.888z M30.909,14.421
			c-0.282,1.336-1.561,2.307-3.038,2.307h-0.212c-0.004-0.011-0.011-0.02-0.015-0.031c-0.115-0.287-0.248-0.564-0.4-0.831
			c-0.041-0.073-0.086-0.141-0.129-0.212c-0.107-0.173-0.222-0.34-0.344-0.502c-0.148-0.199-0.308-0.385-0.475-0.566
			c-0.055-0.059-0.108-0.12-0.165-0.177c-0.896-0.899-2.032-1.525-3.296-1.789c-0.051-0.011-0.102-0.021-0.154-0.031
			c-0.187-0.034-0.372-0.068-0.564-0.086c-0.231-0.024-0.466-0.037-0.703-0.037c-0.064,0-0.129,0.002-0.192,0.005
			c-0.01-0.017-0.022-0.031-0.032-0.047c-0.167-0.278-0.352-0.544-0.548-0.801c-0.091-0.12-0.189-0.233-0.285-0.348
			c-0.115-0.136-0.232-0.268-0.355-0.397c-0.136-0.143-0.273-0.282-0.417-0.416c-0.063-0.058-0.13-0.112-0.195-0.168
			c-0.177-0.155-0.352-0.314-0.54-0.454c0.075-0.045,0.14-0.108,0.184-0.188c0.851-1.561,2.481-2.531,4.257-2.531
			c2.112,0,3.967,1.352,4.613,3.363c0.061,0.189,0.227,0.324,0.425,0.345c0.83,0.085,1.59,0.523,2.085,1.202
			C30.914,12.718,31.09,13.566,30.909,14.421z" />
    </symbol>
    <symbol id="cloud-icon" viewBox="0 0 34.583 30.917">
        <path fill="none" stroke-linecap="round" stroke-linejoin="round" stroke-miterlimit="10" d="M10.16,27.486
	l-0.941,2.931 M12.042,21.623l-0.941,2.931" />
        <path fill="none" stroke-linecap="round" stroke-linejoin="round" stroke-miterlimit="10" d="M20.406,27.486
	l-0.941,2.931 M22.288,21.623l-0.941,2.931" />
        <path fill="none" stroke-linecap="round" stroke-linejoin="round" stroke-miterlimit="10" d="M15.283,27.486
	l-0.941,2.931 M17.165,21.623l-0.941,2.931" />
        <path fill="none" stroke-linecap="round" stroke-linejoin="round" stroke-miterlimit="10" d="M26.394,21.333
	c4.247,0,7.689-3.443,7.689-7.69s-3.442-7.69-7.689-7.69c-0.197,0-0.392,0.015-0.585,0.03" />
        <path fill="none" stroke-linecap="round" stroke-linejoin="round" stroke-miterlimit="10" d="M25.809,5.983
	C24.028,2.717,20.564,0.5,16.583,0.5c-4.678,0-8.637,3.06-9.995,7.286C3.167,8.138,0.5,11.028,0.5,14.542
	c0,3.751,3.041,6.791,6.792,6.791" />
    </symbol>
    <symbol id="tv-icon" viewBox="0 0 30.918 31.605">
        <line fill="none" stroke-width="0.918" stroke-linecap="round" stroke-linejoin="round" stroke-miterlimit="10" x1="12.586" y1="26.755" x2="8.237" y2="31.105" />
        <line fill="none" stroke-width="0.921" stroke-linecap="round" stroke-linejoin="round" stroke-miterlimit="10" x1="18.332" y1="26.755" x2="22.681" y2="31.105" />
        <line fill="none" stroke-width="0.797" stroke-linecap="round" stroke-linejoin="round" stroke-miterlimit="10" x1="11.453" y1="0.434" x2="15.459" y2="4.441" />
        <line fill="none" stroke-width="0.801" stroke-linecap="round" stroke-linejoin="round" stroke-miterlimit="10" x1="19.498" y1="0.401" x2="15.459" y2="4.441" />
        <path fill="none" stroke-linecap="round" stroke-linejoin="round" stroke-miterlimit="10" d="M27.359,26.755H3.558
	c-1.681,0-3.058-1.376-3.058-3.06V7.499c0-1.682,1.377-3.059,3.058-3.059h23.801c1.682,0,3.059,1.377,3.059,3.059v16.197
	C30.418,25.379,29.041,26.755,27.359,26.755z" />
        <line fill="none" stroke-linecap="round" stroke-linejoin="round" stroke-miterlimit="10" x1="8.237" y1="31.105" x2="22.681" y2="31.105" />
    </symbol>
    <symbol id="location-arrow-icon" viewBox="0 0 30.918 31.748">
        <polygon fill="none" stroke-linecap="round" stroke-linejoin="round" stroke-miterlimit="10" points="
                 17.779,31.248 15.405,16.343 0.5,13.969 30.417,0.5 " />
    </symbol>
    <symbol id="map-marker-icon" viewBox="0 0 35 47">
        <path clip-path="url(#SVGID_2_)" fill="none" stroke-linecap="round" stroke-linejoin="round" stroke-miterlimit="10" d="
              M34.304,16.993C34.304,8.161,26.849,1,17.652,1C8.455,1,1,8.161,1,16.993c0,3.021,0.873,5.845,2.388,8.255l14.278,21.167
              l14.258-21.18C33.434,22.828,34.304,20.008,34.304,16.993z" />

        <ellipse clip-path="url(#SVGID_2_)" fill="none" stroke-linecap="round" stroke-linejoin="round" stroke-miterlimit="10" cx="17.652" cy="16.928" rx="7.093" ry="6.812" />
    </symbol>
    <symbol id="btv-icon" viewBox="0 0 174.642 41.582">
        <path fill="#ED1C24" d="M84.004,0.259c7.765,0.636,11.695,4.133,11.792,10.491c-0.136,3.989-1.378,7.043-3.729,9.162
	c3.045,1.812,4.211,5.212,3.498,10.202c-1.1,7.109-6.091,10.701-15.923,10.701h-2.993c-18.499,0-33.036-4.208-44.241-9.913
	l46.886,0.021c2.216-0.077,3.459-0.896,3.729-2.456c0.288-1.58-0.83-2.495-3.353-2.746l-56.234-0.128
	c-4.721-3.216-8.634-6.614-11.823-9.84l69.069,0.026c2.216-0.077,3.458-0.896,3.727-2.457c0.289-1.56-0.77-2.523-3.178-2.89H6.821
	C2.053,4.604,0,0.276,0,0.276L84.004,0.259z" />
        <path d="M135.308,30.647l-2.269-20.789l-10.385,0.001l-3.035,30.564h-12.052l3.23-30.564H97.896L98.885,0l44.803,0.026l3.745,30.321
	c0.272,0.58,0.707,0.854,1.479,0.867c0.774-0.019,1.315-0.31,1.829-1.012c0.584-1.448,9.505-23.567,12.125-30.178h11.776
	l-11.894,30.793c-0.905,1.943-2.4,5.351-6.295,8.017c-2.099,1.436-5,2.748-8.822,2.748c-3.97,0-6.549-1.331-8.288-2.796
	C136.229,36.169,135.465,32.184,135.308,30.647" />
    </symbol>
    <symbol id="grid-icon" viewBox="0 0 33 33">
        <g>
            <path d="M13.845,0H0.5C0.224,0,0,0.224,0,0.5v13.344c0,0.276,0.224,0.5,0.5,0.5h13.345c0.276,0,0.5-0.224,0.5-0.5
		V0.5C14.345,0.224,14.121,0,13.845,0z M13.345,13.344H1V1h12.345V13.344z" />
            <path d="M31.5,0H18.155c-0.276,0-0.5,0.224-0.5,0.5v13.344c0,0.276,0.224,0.5,0.5,0.5H31.5
		c0.276,0,0.5-0.224,0.5-0.5V0.5C32,0.224,31.776,0,31.5,0z M31,13.344H18.655V1H31V13.344z" />
            <path d="M13.845,17.656H0.5c-0.276,0-0.5,0.224-0.5,0.5V31.5C0,31.776,0.224,32,0.5,32h13.345
		c0.276,0,0.5-0.224,0.5-0.5V18.156C14.345,17.879,14.121,17.656,13.845,17.656z M13.345,31H1V18.656h12.345V31z" />
            <path d="M31.5,17.656H18.155c-0.276,0-0.5,0.224-0.5,0.5V31.5c0,0.276,0.224,0.5,0.5,0.5H31.5
		c0.276,0,0.5-0.224,0.5-0.5V18.156C32,17.879,31.776,17.656,31.5,17.656z M31,31H18.655V18.656H31V31z" />
        </g>
    </symbol>
    <symbol id="list-icon" viewBox="0 0 32 32">
        <g>
            <path d="M21.149,27.905H0.5c-0.276,0-0.5,0.224-0.5,0.5s0.224,0.5,0.5,0.5h20.649c0.276,0,0.5-0.224,0.5-0.5
		S21.426,27.905,21.149,27.905z" />
            <path d="M31.5,19.638h-31c-0.276,0-0.5,0.224-0.5,0.5s0.224,0.5,0.5,0.5h31c0.276,0,0.5-0.224,0.5-0.5
		S31.776,19.638,31.5,19.638z" />
            <path d="M0.5,4.104h31c0.276,0,0.5-0.224,0.5-0.5s-0.224-0.5-0.5-0.5h-31c-0.276,0-0.5,0.224-0.5,0.5
		S0.224,4.104,0.5,4.104z" />
            <path d="M0.5,12.371h20.649c0.276,0,0.5-0.224,0.5-0.5s-0.224-0.5-0.5-0.5H0.5c-0.276,0-0.5,0.224-0.5,0.5
		S0.224,12.371,0.5,12.371z" />
        </g>
    </symbol>
    <symbol id="check-icon" viewBox="0 0 12.149 8.78">
        <polyline fill="none" stroke-width="1.681" stroke-linecap="round" stroke-linejoin="round" stroke-miterlimit="10" points="
                  0.84,4.691 4.203,7.939 11.309,0.84 " />
    </symbol>
    <symbol id="football-ball-icon" viewBox="0 0 32 32">
        <polygon fill="none" stroke-linecap="round" stroke-linejoin="round" stroke-miterlimit="10" points="
                 14.453,9.193 22.186,12.14 21.773,20.405 13.785,22.567 9.261,15.637 " />
        <line fill="none" stroke-linecap="round" stroke-linejoin="round" stroke-miterlimit="10" x1="14.453" y1="9.193" x2="13.266" y2="4.805" />
        <line fill="none" stroke-linecap="round" stroke-linejoin="round" stroke-miterlimit="10" x1="22.177" y1="12.13" x2="25.955" y2="10.276" />
        <g>
            <defs>
                <rect id="SVGID_1_" width="32" height="32" />
            </defs>
            <clipPath id="SVGID_2_">
                <use xlink:href="#SVGID_1_" overflow="visible" />
            </clipPath>

            <line clip-path="url(#SVGID_2_)" fill="none" stroke-linecap="round" stroke-linejoin="round" stroke-miterlimit="10" x1="13.273" y1="4.804" x2="16.356" y2="0.581" />
        </g>
        <line fill="none" stroke-linecap="round" stroke-linejoin="round" stroke-miterlimit="10" x1="13.269" y1="4.809" x2="8.076" y2="2.813" />
        <g>
            <defs>
                <rect id="SVGID_3_" width="32" height="32" />
            </defs>
            <clipPath id="SVGID_4_">
                <use xlink:href="#SVGID_3_" overflow="visible" />
            </clipPath>

            <line clip-path="url(#SVGID_4_)" fill="none" stroke-linecap="round" stroke-linejoin="round" stroke-miterlimit="10" x1="4.66" y1="15.59" x2="1.357" y2="11.145" />

            <line clip-path="url(#SVGID_4_)" fill="none" stroke-linecap="round" stroke-linejoin="round" stroke-miterlimit="10" x1="4.663" y1="15.597" x2="1.164" y2="20.023" />
        </g>
        <line fill="none" stroke-linecap="round" stroke-linejoin="round" stroke-miterlimit="10" x1="11.913" y1="26.386" x2="6.361" y2="27.974" />
        <g>
            <defs>
                <rect id="SVGID_5_" width="32" height="32" />
            </defs>
            <clipPath id="SVGID_6_">
                <use xlink:href="#SVGID_5_" overflow="visible" />
            </clipPath>

            <line clip-path="url(#SVGID_6_)" fill="none" stroke-linecap="round" stroke-linejoin="round" stroke-miterlimit="10" x1="11.922" y1="26.384" x2="14.911" y2="31.213" />
        </g>
        <line fill="none" stroke-linecap="round" stroke-linejoin="round" stroke-miterlimit="10" x1="24.755" y1="23.302" x2="24.021" y2="29.03" />
        <g>
            <defs>
                <rect id="SVGID_7_" width="32" height="32" />
            </defs>
            <clipPath id="SVGID_8_">
                <use xlink:href="#SVGID_7_" overflow="visible" />
            </clipPath>

            <line clip-path="url(#SVGID_8_)" fill="none" stroke-linecap="round" stroke-linejoin="round" stroke-miterlimit="10" x1="24.757" y1="23.293" x2="30.006" y2="22.507" />

            <line clip-path="url(#SVGID_8_)" fill="none" stroke-linecap="round" stroke-linejoin="round" stroke-miterlimit="10" x1="25.949" y1="10.291" x2="30.998" y2="12.771" />
        </g>
        <line fill="none" stroke-linecap="round" stroke-linejoin="round" stroke-miterlimit="10" x1="25.941" y1="10.286" x2="26.894" y2="5.064" />
        <line fill="none" stroke-linecap="round" stroke-linejoin="round" stroke-miterlimit="10" x1="4.71" y1="15.643" x2="9.258" y2="15.643" />
        <line fill="none" stroke-linecap="round" stroke-linejoin="round" stroke-miterlimit="10" x1="11.924" y1="26.39" x2="13.769" y2="22.606" />
        <line fill="none" stroke-linecap="round" stroke-linejoin="round" stroke-miterlimit="10" x1="24.761" y1="23.306" x2="21.785" y2="20.33" />
        <g>
            <defs>
                <rect id="SVGID_9_" width="32" height="32" />
            </defs>
            <clipPath id="SVGID_10_">
                <use xlink:href="#SVGID_9_" overflow="visible" />
            </clipPath>
            <path clip-path="url(#SVGID_10_)" fill="#C30000" d="M16,1c8.271,0,15,6.729,15,15c0,8.271-6.729,15-15,15C7.729,31,1,24.271,1,16
		C1,7.729,7.729,1,16,1 M16,0C7.163,0,0,7.164,0,16c0,8.836,7.163,16,16,16c8.836,0,16-7.164,16-16C32,7.164,24.836,0,16,0" />
        </g>
    </symbol>
    <symbol id="pencil-edit-icon" viewBox="0 0 9 31">
        <polygon fill="none" stroke-linecap="round" stroke-linejoin="round" stroke-miterlimit="10" points="8.5,30.5
	0.5,30.5 0.5,8.063 4.5,0.5 8.5,8.063 " />
        <polyline fill="none" stroke-linecap="round" stroke-linejoin="round" stroke-miterlimit="10" points="8.5,8.063
	4.5,9.309 0.5,8.063 " />
        <line fill="none" stroke-linecap="round" stroke-linejoin="round" stroke-miterlimit="10" x1="0.5" y1="26.013" x2="8.5" y2="26.013" />
    </symbol>
    <symbol id="orders-icon" viewBox="0 0 32 32">
        <path fill="none" d="M31.578,6.725c-0.002-0.075-0.02-0.147-0.053-0.213c-0.008-0.016-0.021-0.027-0.031-0.041
			c-0.031-0.048-0.067-0.089-0.113-0.125c-0.009-0.007-0.013-0.018-0.022-0.024c-0.014-0.009-0.031-0.009-0.046-0.016
			c-0.022-0.012-0.04-0.03-0.065-0.039l-8.167-2.918c0,0-0.001,0-0.001,0l-7.045-2.517c-0.108-0.04-0.229-0.039-0.339,0.001
			L0.748,6.268C0.724,6.276,0.707,6.294,0.686,6.306c-0.014,0.007-0.03,0.007-0.043,0.015C0.633,6.327,0.629,6.339,0.62,6.346
			C0.573,6.381,0.536,6.424,0.505,6.472c-0.009,0.014-0.022,0.025-0.029,0.04C0.442,6.579,0.423,6.651,0.422,6.727
			c0,0.004-0.003,0.007-0.003,0.011v16.67c0,0.191,0.108,0.365,0.28,0.449l14.912,7.291c0.069,0.034,0.145,0.051,0.22,0.051
			c0.073,0,0.147-0.017,0.216-0.049l15.25-7.291c0.174-0.083,0.284-0.259,0.284-0.451V6.737C31.581,6.733,31.578,6.729,31.578,6.725
			z M15.833,12.473L9.837,9.949l13.075-5.6l6.775,2.421L15.833,12.473z M15.87,1.833l5.657,2.021L8.557,9.41L2.289,6.771
			L15.87,1.833z M1.419,7.49l6.639,2.795v3.118c0,0.276,0.224,0.5,0.5,0.5s0.5-0.224,0.5-0.5v-2.697l6.273,2.641v16.551
			L1.419,23.095V7.49z M30.581,23.092l-14.25,6.813V13.35l14.25-5.866V23.092z" />
    </symbol>
    <symbol id="bell" viewBox="0 0 55 55">
        <g>
            <path d="M51.376,45.291C46.716,40.66,44.354,35.179,44.354,29v-8.994c0.043-6.857-4.568-11.405-8.53-13.216
                c-1.135-0.519-2.305-0.919-3.494-1.216V5c0-2.757-2.243-5-5-5s-5,2.243-5,5v0.661c-1.071,0.289-2.124,0.666-3.146,1.138
                C14.805,8.817,10.369,13.681,10.329,20v9c0,6.388-2.256,11.869-6.705,16.291c-0.265,0.264-0.361,0.653-0.249,1.01
                s0.415,0.621,0.784,0.685l9.491,1.639c1.768,0.305,3.396,0.555,4.945,0.761C20.341,52.806,23.768,55,27.512,55
                c3.745,0,7.173-2.196,8.917-5.618c1.543-0.205,3.163-0.454,4.921-0.758l9.49-1.639c0.369-0.063,0.671-0.328,0.784-0.685
                C51.737,45.944,51.641,45.555,51.376,45.291z M24.329,5c0-1.654,1.346-3,3-3s3,1.346,3,3v0.182c-1.993-0.286-4.015-0.274-6,0.047V5
                z M27.512,53c-2.532,0-4.898-1.258-6.417-3.315c2.235,0.23,4.321,0.346,6.406,0.346c2.093,0,4.186-0.116,6.43-0.349
                C32.411,51.741,30.044,53,27.512,53z M41.01,46.653c-1.919,0.331-3.678,0.6-5.34,0.812c-0.002,0-0.004,0-0.006,0
                c-0.732,0.093-1.444,0.174-2.141,0.244c-0.007,0.001-0.015,0.001-0.022,0.002c-0.637,0.064-1.26,0.115-1.876,0.16
                c-0.117,0.009-0.233,0.016-0.35,0.024c-0.534,0.035-1.062,0.063-1.587,0.083c-0.108,0.004-0.216,0.01-0.324,0.013
                c-1.244,0.042-2.471,0.042-3.714,0.001c-0.11-0.004-0.222-0.009-0.332-0.014c-0.518-0.02-1.04-0.047-1.567-0.082
                c-0.124-0.008-0.248-0.016-0.373-0.025c-0.6-0.043-1.207-0.094-1.828-0.155c-0.022-0.002-0.043-0.004-0.064-0.006
                c-0.692-0.069-1.399-0.15-2.126-0.242c-0.003,0-0.006,0-0.009,0c-1.668-0.211-3.433-0.482-5.361-0.814L6.329,45.33
                c3.983-4.554,6-10.038,6-16.33v-8.994c0.034-5.435,3.888-9.637,7.691-11.391c1.131-0.521,2.304-0.91,3.497-1.183
                c0.01-0.002,0.021-0.001,0.031-0.003c2.464-0.554,5.087-0.579,7.58-0.068c0.013,0.003,0.026-0.003,0.039-0.001
                c1.304,0.272,2.588,0.684,3.825,1.249c3.689,1.687,7.396,5.861,7.361,11.392v9c0,6.033,2.175,11.643,6.313,16.331L41.01,46.653z"/>
            <path d="M33.746,11.338c-3.875-1.771-8.62-1.773-12.469,0.002c-2.195,1.012-5.918,3.973-5.948,8.654
                c-0.003,0.552,0.441,1.002,0.994,1.006c0.002,0,0.004,0,0.006,0c0.549,0,0.997-0.443,1-0.994c0.023-3.677,3.019-6.035,4.785-6.85
                c3.331-1.537,7.446-1.533,10.799,0c0.502,0.23,1.096,0.009,1.326-0.493C34.469,12.16,34.248,11.567,33.746,11.338z"/>
        </g>
    </symbol>
    <symbol id="envelope" viewBox="0 0 31.012 31.012">
        <g>
            <g>
                <path d="M25.109,21.51c-0.123,0-0.246-0.045-0.342-0.136l-5.754-5.398c-0.201-0.188-0.211-0.505-0.022-0.706
                    c0.189-0.203,0.504-0.212,0.707-0.022l5.754,5.398c0.201,0.188,0.211,0.505,0.022,0.706C25.375,21.457,25.243,21.51,25.109,21.51z
                    "/>
                <path d="M5.902,21.51c-0.133,0-0.266-0.053-0.365-0.158c-0.189-0.201-0.179-0.518,0.022-0.706l5.756-5.398
                    c0.202-0.188,0.519-0.18,0.707,0.022c0.189,0.201,0.179,0.518-0.022,0.706l-5.756,5.398C6.148,21.465,6.025,21.51,5.902,21.51z"/>
            </g>
            <path d="M28.512,26.529H2.5c-1.378,0-2.5-1.121-2.5-2.5V6.982c0-1.379,1.122-2.5,2.5-2.5h26.012c1.378,0,2.5,1.121,2.5,2.5v17.047
                C31.012,25.408,29.89,26.529,28.512,26.529z M2.5,5.482c-0.827,0-1.5,0.673-1.5,1.5v17.047c0,0.827,0.673,1.5,1.5,1.5h26.012
                c0.827,0,1.5-0.673,1.5-1.5V6.982c0-0.827-0.673-1.5-1.5-1.5H2.5z"/>
            <path d="M15.506,18.018c-0.665,0-1.33-0.221-1.836-0.662L0.83,6.155C0.622,5.974,0.6,5.658,0.781,5.449
                c0.183-0.208,0.498-0.227,0.706-0.048l12.84,11.2c0.639,0.557,1.719,0.557,2.357,0L29.508,5.419
                c0.207-0.181,0.522-0.161,0.706,0.048c0.181,0.209,0.16,0.524-0.048,0.706L17.342,17.355
                C16.835,17.797,16.171,18.018,15.506,18.018z"/>
        </g>
    </symbol>
    <symbol id="search" viewBox="0 0 52.966 52.966">
        <path d="M51.704,51.273L36.845,35.82c3.79-3.801,6.138-9.041,6.138-14.82c0-11.58-9.42-21-21-21s-21,9.42-21,21s9.42,21,21,21
            c5.083,0,9.748-1.817,13.384-4.832l14.895,15.491c0.196,0.205,0.458,0.307,0.721,0.307c0.25,0,0.499-0.093,0.693-0.279
            C52.074,52.304,52.086,51.671,51.704,51.273z M21.983,40c-10.477,0-19-8.523-19-19s8.523-19,19-19s19,8.523,19,19
            S32.459,40,21.983,40z"/>
    </symbol>
    <symbol id="user-avatar-small" viewBox="0 0 55 55">
        <path d="M55,27.5C55,12.337,42.663,0,27.5,0S0,12.337,0,27.5c0,8.009,3.444,15.228,8.926,20.258l-0.026,0.023l0.892,0.752
            c0.058,0.049,0.121,0.089,0.179,0.137c0.474,0.393,0.965,0.766,1.465,1.127c0.162,0.117,0.324,0.234,0.489,0.348
            c0.534,0.368,1.082,0.717,1.642,1.048c0.122,0.072,0.245,0.142,0.368,0.212c0.613,0.349,1.239,0.678,1.88,0.98
            c0.047,0.022,0.095,0.042,0.142,0.064c2.089,0.971,4.319,1.684,6.651,2.105c0.061,0.011,0.122,0.022,0.184,0.033
            c0.724,0.125,1.456,0.225,2.197,0.292c0.09,0.008,0.18,0.013,0.271,0.021C25.998,54.961,26.744,55,27.5,55
            c0.749,0,1.488-0.039,2.222-0.098c0.093-0.008,0.186-0.013,0.279-0.021c0.735-0.067,1.461-0.164,2.178-0.287
            c0.062-0.011,0.125-0.022,0.187-0.034c2.297-0.412,4.495-1.109,6.557-2.055c0.076-0.035,0.153-0.068,0.229-0.104
            c0.617-0.29,1.22-0.603,1.811-0.936c0.147-0.083,0.293-0.167,0.439-0.253c0.538-0.317,1.067-0.648,1.581-1
            c0.185-0.126,0.366-0.259,0.549-0.391c0.439-0.316,0.87-0.642,1.289-0.983c0.093-0.075,0.193-0.14,0.284-0.217l0.915-0.764
            l-0.027-0.023C51.523,42.802,55,35.55,55,27.5z M2,27.5C2,13.439,13.439,2,27.5,2S53,13.439,53,27.5
            c0,7.577-3.325,14.389-8.589,19.063c-0.294-0.203-0.59-0.385-0.893-0.537l-8.467-4.233c-0.76-0.38-1.232-1.144-1.232-1.993v-2.957
            c0.196-0.242,0.403-0.516,0.617-0.817c1.096-1.548,1.975-3.27,2.616-5.123c1.267-0.602,2.085-1.864,2.085-3.289v-3.545
            c0-0.867-0.318-1.708-0.887-2.369v-4.667c0.052-0.519,0.236-3.448-1.883-5.864C34.524,9.065,31.541,8,27.5,8
            s-7.024,1.065-8.867,3.168c-2.119,2.416-1.935,5.345-1.883,5.864v4.667c-0.568,0.661-0.887,1.502-0.887,2.369v3.545
            c0,1.101,0.494,2.128,1.34,2.821c0.81,3.173,2.477,5.575,3.093,6.389v2.894c0,0.816-0.445,1.566-1.162,1.958l-7.907,4.313
            c-0.252,0.137-0.502,0.297-0.752,0.476C5.276,41.792,2,35.022,2,27.5z M42.459,48.132c-0.35,0.254-0.706,0.5-1.067,0.735
            c-0.166,0.108-0.331,0.216-0.5,0.321c-0.472,0.292-0.952,0.57-1.442,0.83c-0.108,0.057-0.217,0.111-0.326,0.167
            c-1.126,0.577-2.291,1.073-3.488,1.476c-0.042,0.014-0.084,0.029-0.127,0.043c-0.627,0.208-1.262,0.393-1.904,0.552
            c-0.002,0-0.004,0.001-0.006,0.001c-0.648,0.16-1.304,0.293-1.964,0.402c-0.018,0.003-0.036,0.007-0.054,0.01
            c-0.621,0.101-1.247,0.174-1.875,0.229c-0.111,0.01-0.222,0.017-0.334,0.025C28.751,52.97,28.127,53,27.5,53
            c-0.634,0-1.266-0.031-1.895-0.078c-0.109-0.008-0.218-0.015-0.326-0.025c-0.634-0.056-1.265-0.131-1.89-0.233
            c-0.028-0.005-0.056-0.01-0.084-0.015c-1.322-0.221-2.623-0.546-3.89-0.971c-0.039-0.013-0.079-0.027-0.118-0.04
            c-0.629-0.214-1.251-0.451-1.862-0.713c-0.004-0.002-0.009-0.004-0.013-0.006c-0.578-0.249-1.145-0.525-1.705-0.816
            c-0.073-0.038-0.147-0.074-0.219-0.113c-0.511-0.273-1.011-0.568-1.504-0.876c-0.146-0.092-0.291-0.185-0.435-0.279
            c-0.454-0.297-0.902-0.606-1.338-0.933c-0.045-0.034-0.088-0.07-0.133-0.104c0.032-0.018,0.064-0.036,0.096-0.054l7.907-4.313
            c1.36-0.742,2.205-2.165,2.205-3.714l-0.001-3.602l-0.23-0.278c-0.022-0.025-2.184-2.655-3.001-6.216l-0.091-0.396l-0.341-0.221
            c-0.481-0.311-0.769-0.831-0.769-1.392v-3.545c0-0.465,0.197-0.898,0.557-1.223l0.33-0.298v-5.57l-0.009-0.131
            c-0.003-0.024-0.298-2.429,1.396-4.36C21.583,10.837,24.061,10,27.5,10c3.426,0,5.896,0.83,7.346,2.466
            c1.692,1.911,1.415,4.361,1.413,4.381l-0.009,5.701l0.33,0.298c0.359,0.324,0.557,0.758,0.557,1.223v3.545
            c0,0.713-0.485,1.36-1.181,1.575l-0.497,0.153l-0.16,0.495c-0.59,1.833-1.43,3.526-2.496,5.032c-0.262,0.37-0.517,0.698-0.736,0.949
            l-0.248,0.283V39.8c0,1.612,0.896,3.062,2.338,3.782l8.467,4.233c0.054,0.027,0.107,0.055,0.16,0.083
            C42.677,47.979,42.567,48.054,42.459,48.132z"/>
    </symbol>
    <symbol id="football-ball" viewBox="0 0 64 64">
        <path id="Football-ball" d="M32,0C14.355,0,0,14.355,0,32s14.355,32,32,32c17.645,0,32-14.355,32-32S49.645,0,32,0z M61.624,36.731
            l-3.885-6.439l2.681-7.88C61.439,25.425,62,28.647,62,32C62,33.61,61.869,35.189,61.624,36.731z M54.066,52.298
            c-0.129-0.033-0.267-0.043-0.408-0.02L43.98,53.83c-0.021-0.118-0.057-0.236-0.123-0.345l-5.502-9.17l8.896-13.7h8.428
            c0.023,0.108,0.047,0.215,0.105,0.312l5.236,8.678C59.761,44.41,57.335,48.748,54.066,52.298z M43.981,55.855l7.688-1.232
            c-3.338,2.906-7.321,5.087-11.706,6.296L43.981,55.855z M12.65,9.1c5.056-4.279,11.541-6.913,18.628-7.082
            c0.052,0.138,0.126,0.268,0.24,0.376l5.525,5.214l-2.185,8.156l-14.237,5.465c-0.052-0.042-0.093-0.094-0.154-0.126l-8.87-4.701
            L12.65,9.1z M38.386,6.124l-4.283-4.042c3.916,0.273,7.628,1.293,10.989,2.931L38.386,6.124z M21.93,38.737l-0.816-15.554
            L35.655,17.6l9.803,12.106l-8.483,13.063L21.93,38.737z M59.305,19.596c-0.031,0.054-0.072,0.098-0.093,0.159l-3.015,8.86h-9.048
            L36.882,15.937l2.113-7.887l8.27-1.371c0.176-0.029,0.323-0.114,0.453-0.218C52.768,9.581,56.823,14.156,59.305,19.596z
             M10.311,11.307l-0.802,5.561L4.16,20.843C5.595,17.274,7.696,14.045,10.311,11.307z M3.056,24.127
            c0.044-0.023,0.09-0.037,0.131-0.068l7.737-5.751l8.158,4.323l0.888,16.936c0.002,0.025,0.013,0.048,0.016,0.073l-7.71,7.629
            c-0.066,0.065-0.105,0.145-0.149,0.222L4.734,44.32c-0.028-0.012-0.057-0.009-0.085-0.018C2.953,40.545,2,36.383,2,32
            C2,29.275,2.372,26.638,3.056,24.127z M6.078,47.072l5.415,2.322l4.141,7.729C11.72,54.564,8.44,51.119,6.078,47.072z
             M18.837,58.951c-0.019-0.064-0.025-0.131-0.058-0.192l-5.317-9.924c0.076-0.043,0.155-0.08,0.22-0.145l8.027-7.942l14.507,3.888
            l5.927,9.879c0.05,0.083,0.11,0.154,0.178,0.217l-5.449,6.867C35.285,61.859,33.659,62,32,62C27.28,62,22.814,60.901,18.837,58.951
            z"/>
    </symbol>
    <symbol id="tennis-ball" viewBox="0 0 64 64">
        <path id="Tennis-ball" d="M32,0C14.356,0,0,14.355,0,32s14.356,32,32,32c17.645,0,32-14.355,32-32S49.645,0,32,0z M2,32
            c0-8.395,3.47-15.991,9.047-21.442c10.491,15.281,10.493,29.313,0.005,42.889C5.473,47.996,2,40.398,2,32z M12.525,54.792
            c0.013-0.015,0.033-0.021,0.045-0.037c11.03-14.219,11.042-29.517,0.033-45.466c-0.022-0.032-0.056-0.049-0.081-0.078
            C17.768,4.721,24.57,2,32,2c7.656,0,14.647,2.886,19.953,7.623c-10.688,15.692-10.693,30.75-0.016,44.768
            C46.633,59.119,39.648,62,32,62C24.572,62,17.77,59.28,12.525,54.792z M53.395,53.003C43.351,39.702,43.36,25.958,53.421,11.025
            C58.723,16.439,62,23.842,62,32C62,40.172,58.712,47.587,53.395,53.003z"/>
    </symbol>
    <symbol id="basket-ball" viewBox="0 0 77.832 77.832">
        <path d="M38.916,0C17.458,0,0,17.458,0,38.916c0,2.489,0.245,4.923,0.693,7.284l-0.146,0.175c0.07,0.059,0.138,0.109,0.208,0.167
            c3.555,17.819,19.312,31.29,38.161,31.29c21.458,0,38.916-17.458,38.916-38.916S60.374,0,38.916,0z M72.061,25.249
            c-0.052,12.625-11.312,15.317-16.045,15.888c3.945-13.604,2.821-26.663,1.959-32.572C64.236,12.512,69.199,18.337,72.061,25.249z
             M54.559,6.658c0.653,3.375,3.119,18.577-1.675,34.318c-9.122-2.418-10.416-9.061-12.143-18.104
            c-1.169-6.126-2.491-12.99-6.694-19.474c1.594-0.217,3.217-0.339,4.869-0.339C44.521,3.059,49.829,4.354,54.559,6.658z
             M30.764,4.005c4.453,6.291,5.793,13.262,6.973,19.441c1.714,8.979,3.346,17.479,14.175,20.446
            c-0.799,2.201-1.749,4.398-2.877,6.562c-22.46-10.88-36.241-28.358-39.237-32.423C14.786,11.094,22.187,6.007,30.764,4.005z
             M8.018,20.751c4.195,5.486,17.939,21.856,39.521,32.371c-0.844,1.407-1.773,2.791-2.789,4.147
            c-5.908-2.934-11.457-3.388-16.834-3.826c-7.44-0.607-15.128-1.256-24.354-8.571c-0.326-1.938-0.504-3.926-0.504-5.956
            C3.059,32.29,4.872,26.083,8.018,20.751z M4.647,49.475c8.612,5.83,15.922,6.438,23.021,7.018c5.113,0.417,9.972,0.82,15.12,3.232
            c-4.148,4.854-9.563,9.235-16.591,12.709C15.932,68.525,7.908,60.038,4.647,49.475z M30.319,73.725
            c6.382-3.564,11.38-7.873,15.283-12.574c1.639,0.906,4.851,3.021,5.688,6.066c0.497,1.805,0.046,3.756-1.312,5.803
            c-3.485,1.133-7.201,1.754-11.061,1.754C35.953,74.773,33.074,74.405,30.319,73.725z M54.134,71.374
            c0.507-1.685,0.552-3.351,0.101-4.983c-1.068-3.863-4.598-6.434-6.729-7.677c1.028-1.403,1.967-2.833,2.823-4.284
            c5.354,2.402,11.157,4.416,17.387,5.82C64.193,64.993,59.529,68.834,54.134,71.374z M69.557,57.523
            c-6.373-1.342-12.293-3.354-17.74-5.776c1.27-2.456,2.322-4.952,3.191-7.446c2.686-0.195,10.21-1.199,15.299-6.387
            c1.709-1.742,2.957-3.786,3.758-6.096c0.463,2.295,0.709,4.668,0.709,7.098C74.773,45.725,72.865,52.096,69.557,57.523z"/>
    </symbol>
    
    <symbol id="light-bulb" viewBox="0 0 455.881 455.881">
        <g>
            <path d="m321.218,257.555c15.516-20.46 23.717-44.881 23.717-70.624 0-31.563-12.379-61.151-34.857-83.314-22.474-22.158-52.261-34.124-83.828-33.668-30.591,0.433-59.412,12.708-81.154,34.564-21.741,21.855-33.867,50.741-34.145,81.335-0.238,26.228 8.011,51.088 23.855,71.894 25.721,33.776 39.887,75.149 39.887,116.498v45.244c0,20.069 16.327,36.396 36.396,36.396h33.854c20.069,0 36.396-16.328 36.396-36.396v-45.241c0.001-41.806 13.691-82.157 39.879-116.688zm-174.478-8.9c-13.808-18.132-20.997-39.803-20.79-62.67 0.499-54.935 45.588-100.26 100.512-101.037 27.553-0.37 53.493,10.035 73.084,29.352 19.597,19.321 30.389,45.116 30.389,72.632 0,22.442-7.147,43.729-20.669,61.56-27.593,36.385-42.45,78.833-43.058,122.93h-76.536c-0.627-43.669-15.817-87.161-42.932-122.767zm42.953,165.746v-6.072l76.647,8.781v2.374c0,1.25-0.13,2.468-0.336,3.659l-76.311-8.742zm0-21.17v-6.809h76.647v15.59l-76.647-8.781zm21.396,47.65c-8.057,0-15.082-4.48-18.731-11.077l64.567,7.397c-3.421,2.321-7.545,3.679-11.981,3.679h-33.855z"/>
            <path d="m153.776,198.213c-0.585-3.925-0.864-7.957-0.827-11.983 0.038-4.142-3.289-7.53-7.431-7.568-4.114-0.036-7.53,3.289-7.568,7.431-0.044,4.81 0.289,9.632 0.99,14.333 0.555,3.722 3.755,6.395 7.409,6.395 0.368,0 0.741-0.027 1.116-0.083 4.096-0.612 6.922-4.428 6.311-8.525z"/>
            <path d="m197.913,312.135c0.776,0 1.566-0.122 2.344-0.377 3.935-1.294 6.076-5.533 4.782-9.467-8.312-25.277-20.7-48.827-36.82-69.994-2.664-3.499-5.025-7.226-7.016-11.079-1.902-3.68-6.427-5.12-10.107-3.218-3.679,1.902-5.12,6.427-3.218,10.107 2.39,4.622 5.218,9.089 8.408,13.278 15.106,19.836 26.715,41.904 34.504,65.591 1.038,3.157 3.971,5.159 7.123,5.159z"/>
            <path d="m306.746,212.613c-3.804-1.639-8.217,0.117-9.855,3.921-2.376,5.518-5.451,10.781-9.139,15.643-2.503,3.3-1.856,8.005 1.444,10.508 1.355,1.028 2.947,1.524 4.526,1.524 2.267,0 4.507-1.023 5.982-2.969 4.419-5.827 8.107-12.143 10.963-18.772 1.639-3.804-0.116-8.217-3.921-9.855z"/>
            <path d="m227.941,111.938c41.352,0 74.994,33.643 74.994,74.995 0,2.351-0.108,4.72-0.321,7.041-0.378,4.125 2.658,7.775 6.783,8.154 0.233,0.021 0.464,0.032 0.694,0.032 3.833,0 7.103-2.923 7.46-6.815 0.254-2.775 0.384-5.605 0.384-8.412 0-49.623-40.371-89.995-89.994-89.995-4.142,0-7.5,3.358-7.5,7.5s3.358,7.5 7.5,7.5z"/>
            <path d="m227.941,57c4.142,0 7.5-3.358 7.5-7.5v-42c0-4.142-3.358-7.5-7.5-7.5s-7.5,3.358-7.5,7.5v42c0,4.142 3.358,7.5 7.5,7.5z"/>
            <path d="m152.065,71.82c1.39,2.407 3.91,3.752 6.502,3.752 1.272,0 2.562-0.324 3.743-1.006 3.587-2.071 4.817-6.658 2.746-10.245l-20.99-36.36c-2.072-3.588-6.658-4.817-10.245-2.746-3.587,2.071-4.817,6.658-2.746,10.245l20.99,36.36z"/>
            <path d="m388.22,272.115l-36.36-20.99c-3.588-2.072-8.175-0.842-10.245,2.746-2.071,3.587-0.842,8.174 2.746,10.245l36.36,20.99c1.181,0.682 2.47,1.006 3.743,1.006 2.592,0 5.113-1.346 6.502-3.752 2.071-3.587 0.841-8.174-2.746-10.245z"/>
            <path d="m67.661,104.366l36.36,20.99c1.181,0.682 2.47,1.006 3.743,1.006 2.592,0 5.113-1.346 6.502-3.752 2.071-3.587 0.842-8.174-2.746-10.245l-36.36-20.99c-3.587-2.072-8.174-0.842-10.245,2.746-2.071,3.587-0.842,8.173 2.746,10.245z"/>
            <path d="m408.68,180.74h-42c-4.142,0-7.5,3.358-7.5,7.5s3.358,7.5 7.5,7.5h42c4.142,0 7.5-3.358 7.5-7.5s-3.357-7.5-7.5-7.5z"/>
            <path d="m96.7,188.24c0-4.142-3.358-7.5-7.5-7.5h-42c-4.142,0-7.5,3.358-7.5,7.5s3.358,7.5 7.5,7.5h42c4.143,0 7.5-3.358 7.5-7.5z"/>
            <path d="m348.117,126.362c1.272,0 2.562-0.324 3.743-1.006l36.36-20.99c3.587-2.071 4.817-6.658 2.746-10.245-2.071-3.587-6.659-4.817-10.245-2.746l-36.36,20.99c-3.587,2.071-4.817,6.658-2.746,10.245 1.389,2.406 3.911,3.752 6.502,3.752z"/>
            <path d="m104.021,251.125l-36.36,20.99c-3.587,2.071-4.817,6.658-2.746,10.245 1.389,2.406 3.91,3.752 6.502,3.752 1.272,0 2.562-0.324 3.743-1.006l36.36-20.99c3.587-2.071 4.817-6.658 2.746-10.245-2.07-3.588-6.66-4.817-10.245-2.746z"/>
            <path d="m293.571,74.566c1.181,0.682 2.47,1.006 3.743,1.006 2.592,0 5.113-1.346 6.502-3.752l20.99-36.36c2.071-3.587 0.841-8.174-2.746-10.245-3.586-2.071-8.174-0.842-10.245,2.746l-20.99,36.36c-2.071,3.587-0.841,8.174 2.746,10.245z"/>
        </g>
    </symbol>

</svg>